<?xml version="1.0" encoding="UTF-8"?>
<svg version="1.1" xmlns="http://www.w3.org/2000/svg" width="934" height="172">
<path d="M0 0 C0.84929077 -0.00014603 1.69858154 -0.00029205 2.5736084 -0.0004425 C5.37095729 0.0002522 8.16823896 0.0080239 10.96557617 0.01586914 C12.90899113 0.01773489 14.85240655 0.01915805 16.79582214 0.02015686 C21.90364894 0.02396968 27.01144717 0.03378942 32.1192627 0.04486084 C37.33430597 0.05510152 42.54935386 0.05966017 47.7644043 0.06469727 C57.99163037 0.07541279 68.21883527 0.09247438 78.44604492 0.11352539 C78.77604492 1.10352539 79.10604492 2.09352539 79.44604492 3.11352539 C78.11694336 5.58007812 78.11694336 5.58007812 76.05541992 8.54711914 C75.68382248 9.08839447 75.31222504 9.6296698 74.92936707 10.18734741 C73.69429809 11.98191434 72.44514159 13.76620078 71.19604492 15.55102539 C70.33110187 16.80311996 69.46726596 18.05597999 68.60449219 19.30957031 C66.80159567 21.92724875 64.99390022 24.54151339 63.18286133 27.15356445 C59.28178614 32.78797065 55.43882948 38.46168323 51.59622192 44.13604736 C50.3878783 45.91962909 49.17782474 47.70203898 47.96728516 49.48413086 C43.86444467 55.52636147 39.78771071 61.58441578 35.75854492 67.67602539 C32.48658234 72.62211124 29.05932423 77.42949492 25.53588867 82.19946289 C22.47010494 86.47436881 19.57551522 90.85922293 16.68237305 95.25219727 C13.53705096 100.02251935 13.53705096 100.02251935 12.44604492 101.11352539 C9.58512674 101.20874957 6.74840871 101.23905865 3.88720703 101.22705078 C2.98973251 101.22719681 2.092258 101.22734283 1.16758728 101.22749329 C-1.81383642 101.22679381 -4.79519848 101.2189998 -7.77661133 101.21118164 C-9.8378445 101.20931758 -11.89907812 101.20789362 -13.96031189 101.20689392 C-19.39699518 101.20306776 -24.83365193 101.19323665 -30.27032471 101.18218994 C-35.81343222 101.17197792 -41.356544 101.16739675 -46.8996582 101.16235352 C-57.78443551 101.15161447 -68.66919309 101.13453688 -79.55395508 101.11352539 C-78.68298242 97.05298325 -76.7555835 94.12063976 -74.42895508 90.73852539 C-73.77068726 89.76665283 -73.77068726 89.76665283 -73.09912109 88.77514648 C-71.58993063 86.55055886 -70.07202351 84.33206272 -68.55395508 82.11352539 C-67.41943889 80.44713207 -66.28534011 78.78045451 -65.15161133 77.11352539 C-62.6508653 73.43948529 -60.14661522 69.76786522 -57.63989258 66.09790039 C-53.29245306 59.73238495 -48.95290694 53.36152761 -44.61645508 46.98852539 C-43.93123779 45.98257324 -43.24602051 44.97662109 -42.54003906 43.94018555 C-36.50318246 35.06680422 -30.53546849 26.15015298 -24.66723633 17.16430664 C-23.40089557 15.25115799 -22.13397133 13.33839544 -20.86645508 11.42602539 C-20.22901367 10.43924805 -19.59157227 9.4524707 -18.93481445 8.43579102 C-17.99798828 7.03296875 -17.99798828 7.03296875 -17.04223633 5.60180664 C-16.21526245 4.34170776 -16.21526245 4.34170776 -15.37158203 3.05615234 C-11.5021486 -1.07938585 -5.30786746 -0.02398786 0 0 Z " fill="#1378FA" transform="translate(82.553955078125,5.886474609375)"/>
<path d="M0 0 C7.86327616 -0.07334719 15.72526227 -0.05834784 23.5887146 -0.02886963 C25.95459906 -0.02383859 28.32048456 -0.01927856 30.68637085 -0.01519775 C36.40384222 -0.00433299 42.12127327 0.01227495 47.8387146 0.03363037 C48.0666574 4.86823179 47.04992646 6.38938294 43.8387146 10.03363037 C42.58915129 11.85312298 41.36090789 13.68738988 40.1512146 15.53363037 C37.30557165 19.84154456 34.41498963 24.10987542 31.4637146 28.34613037 C28.2831027 32.9144593 25.16532591 37.51966774 22.0887146 42.15863037 C13.93351866 54.4412884 5.66611165 66.65560337 -3.00308228 78.58270264 C-5.22378479 81.65145742 -7.22272888 84.78185815 -9.1612854 88.03363037 C-10.96047296 90.61848936 -12.79706388 93.17359291 -14.6378479 95.72894287 C-16.30630966 98.03648312 -16.30630966 98.03648312 -17.1612854 101.03363037 C-37.8380714 101.80109752 -58.49063146 102.22218156 -79.18154907 102.21893311 C-82.83712061 102.21882854 -86.49251045 102.23285109 -90.14803791 102.24970531 C-93.0089863 102.26077052 -95.86988834 102.26285457 -98.73085594 102.26232338 C-100.73122472 102.26406146 -102.73157908 102.27486707 -104.73191833 102.28587341 C-105.92975449 102.28279678 -107.12759064 102.27972015 -108.36172485 102.27655029 C-109.41326248 102.27797531 -110.46480011 102.27940033 -111.54820251 102.28086853 C-114.1612854 102.03363037 -114.1612854 102.03363037 -117.1612854 100.03363037 C-115.9856604 98.95081787 -115.9856604 98.95081787 -114.7862854 97.84613037 C-112.26301383 95.14262512 -111.40696849 93.41477018 -110.1612854 90.03363037 C-109.1612854 89.03363037 -108.1612854 88.03363037 -107.1612854 87.03363037 C-105.73595814 84.74384471 -104.45690755 82.40149154 -103.1612854 80.03363037 C-102.5012854 80.03363037 -101.8412854 80.03363037 -101.1612854 80.03363037 C-100.5012854 78.05363037 -99.8412854 76.07363037 -99.1612854 74.03363037 C-98.5012854 74.03363037 -97.8412854 74.03363037 -97.1612854 74.03363037 C-96.8519104 73.04363037 -96.8519104 73.04363037 -96.5362854 72.03363037 C-94.60024466 67.80954148 -92.74037202 64.09121335 -89.1612854 61.03363037 C-85.47565691 59.94587816 -81.98249088 59.96641025 -78.1612854 60.03363037 C-76.77876587 59.98142334 -76.77876587 59.98142334 -75.36831665 59.92816162 C-70.97116039 59.79176534 -68.04532742 59.79521891 -64.1612854 62.03363037 C-63.90991821 61.49866943 -63.65855103 60.9637085 -63.39956665 60.41253662 C-57.34297302 48.7769987 -49.11910564 38.01913145 -41.68325806 27.24017334 C-40.32305353 25.26816043 -38.96614771 23.29393596 -37.61050415 21.31878662 C-36.14767887 19.19402658 -34.66573996 17.08224565 -33.1612854 14.98675537 C-31.09454666 12.06810212 -31.09454666 12.06810212 -29.5362854 8.83050537 C-27.66562705 5.4529278 -26.17783317 3.46039333 -23.1612854 1.03363037 C-20.126191 0.50306473 -17.58348025 0.26904304 -14.54019165 0.24066162 C-13.67331726 0.21532852 -12.80644287 0.18999542 -11.91329956 0.16389465 C-7.94255031 0.06369162 -3.97169452 0.04225166 0 0 Z " fill="#5348E4" transform="translate(163.16128540039063,52.96636962890625)"/>
<path d="M0 0 C3.00920598 -0.49901406 5.66487301 -0.7379563 8.6875 -0.8125 C9.47833984 -0.88275391 10.26917969 -0.95300781 11.08398438 -1.02539062 C13.70606678 -1.08818203 15.53856252 -0.92671325 18 0 C20.98208839 2.95818616 22.93740312 6.3623966 25 10 C25.79942017 11.32414917 25.79942017 11.32414917 26.61499023 12.67504883 C28.23374644 15.37000428 29.80750038 18.0874585 31.375 20.8125 C35.77143819 28.37546977 40.3351191 35.66612387 45.48828125 42.734375 C47 45 47 45 47 47 C47.66 47 48.32 47 49 47 C48.99777939 46.42592911 48.99555878 45.85185822 48.99327087 45.26039124 C48.97121743 39.3074709 48.95609316 33.3545621 48.94506836 27.40161133 C48.94002683 25.17732268 48.93319377 22.95303737 48.92456055 20.72875977 C48.91248702 17.53921691 48.90677004 14.34971771 48.90234375 11.16015625 C48.89718246 10.15912369 48.89202118 9.15809113 48.88670349 8.12672424 C48.88662796 7.20584518 48.88655243 6.28496613 48.88647461 5.33618164 C48.884254 4.52121719 48.88203339 3.70625275 48.87974548 2.86659241 C49 1 49 1 50 0 C52.49238569 -0.12653198 54.94470441 -0.18519825 57.4375 -0.1875 C58.13166016 -0.19974609 58.82582031 -0.21199219 59.54101562 -0.22460938 C61.36220901 -0.22989842 63.1828692 -0.12169207 65 0 C67.43140027 2.43140027 67.2417195 3.72025276 67.27105713 7.03857422 C67.26700867 7.73732666 67.26296021 8.4360791 67.25878906 9.15600586 C67.2622937 9.8927504 67.26579834 10.62949493 67.26940918 11.38856506 C67.27823159 13.83075304 67.27237506 16.27265268 67.265625 18.71484375 C67.26697165 20.40873775 67.26891218 22.10263137 67.27142334 23.79652405 C67.27437541 27.34998243 67.27007487 30.90334038 67.26074219 34.45678711 C67.24935626 39.01451343 67.2559011 43.572004 67.26788712 48.12972164 C67.27511091 51.62897012 67.27281525 55.12816264 67.26763153 58.6274128 C67.26629602 60.30795889 67.26793931 61.98851003 67.27259064 63.66905022 C67.27766346 66.01770373 67.26993479 68.36597463 67.25878906 70.71459961 C67.26283752 71.41132782 67.26688599 72.10805603 67.27105713 72.82589722 C67.23915603 76.45011806 67.07193103 77.89210345 65 81 C62.45387764 81.36157951 60.23430552 81.50971137 57.6875 81.5 C56.37136719 81.5309375 55.05523437 81.561875 53.69921875 81.59375 C48.95079391 80.83159522 47.94670834 79.78527875 45 76 C42.55224268 72.40082429 40.2665983 68.71533066 38 65 C37.351521 63.94941406 36.70304199 62.89882812 36.03491211 61.81640625 C34.68956919 59.63584801 33.34706668 57.45353491 32.00732422 55.26953125 C29.50118344 51.18752721 26.97710777 47.11680065 24.45141602 43.046875 C21.96349675 39.03379081 19.48168634 35.01694071 17 31 C16.99191315 31.58215775 16.98382629 32.16431549 16.97549438 32.76411438 C16.88953903 38.8148917 16.79003957 44.86533799 16.68261719 50.91577148 C16.64429779 53.17482959 16.60945019 55.43394932 16.578125 57.69311523 C16.53253893 60.93756157 16.47453362 64.18158248 16.4140625 67.42578125 C16.40251129 68.43836502 16.39096008 69.45094879 16.37905884 70.49421692 C16.35918915 71.43496567 16.33931946 72.37571442 16.31884766 73.3449707 C16.30552399 74.17325882 16.29220032 75.00154694 16.2784729 75.85493469 C16 78 16 78 14 81 C10.8125 81.36328125 10.8125 81.36328125 7 81.3125 C5.1128125 81.30669922 5.1128125 81.30669922 3.1875 81.30078125 C0 81 0 81 -2 79 C-2.19815532 76.57690712 -2.27283408 74.26812163 -2.25878906 71.84399414 C-2.2622937 71.1072496 -2.26579834 70.37050507 -2.26940918 69.61143494 C-2.27823159 67.16924696 -2.27237506 64.72734732 -2.265625 62.28515625 C-2.26697165 60.59126225 -2.26891218 58.89736863 -2.27142334 57.20347595 C-2.27437541 53.65001757 -2.27007487 50.09665962 -2.26074219 46.54321289 C-2.24935626 41.98548657 -2.2559011 37.427996 -2.26788712 32.87027836 C-2.27511091 29.37102988 -2.27281525 25.87183736 -2.26763153 22.3725872 C-2.26629602 20.69204111 -2.26793931 19.01148997 -2.27259064 17.33094978 C-2.27766346 14.98229627 -2.26993479 12.63402537 -2.25878906 10.28540039 C-2.26283752 9.58867218 -2.26688599 8.89194397 -2.27105713 8.17410278 C-2.23915603 4.54988194 -2.07193103 3.10789655 0 0 Z " fill="#EEE7E5" transform="translate(307,65)"/>
<path d="M0 0 C0.70640625 0.05220703 1.4128125 0.10441406 2.140625 0.15820312 C3.88579987 0.28791207 5.63045725 0.42454954 7.375 0.5625 C7.705 2.2125 8.035 3.8625 8.375 5.5625 C9.303125 4.758125 10.23125 3.95375 11.1875 3.125 C16.32557093 -1.32799481 22.12232709 -0.84513483 28.6328125 -0.70703125 C34.4875368 -0.28534443 37.90813566 1.15787306 42.078125 5.22265625 C50.06377438 14.66200394 50.26641703 26.79338599 49.375 38.5625 C47.75884056 47.66218032 43.80643143 54.10267283 36.375 59.5625 C32.19412535 61.66760706 28.589309 61.8609462 23.9375 61.875 C22.66003906 61.89175781 21.38257813 61.90851563 20.06640625 61.92578125 C15.1968554 61.44655561 11.8401643 60.0276643 8.375 56.5625 C8.045 65.8025 7.715 75.0425 7.375 84.5625 C4.755625 84.748125 2.13625 84.93375 -0.5625 85.125 C-1.3887085 85.18631104 -2.21491699 85.24762207 -3.06616211 85.31079102 C-4.91690666 85.43405111 -6.77120522 85.500103 -8.625 85.5625 C-10.39082363 83.79667637 -9.74485561 81.45878001 -9.74942017 79.10733032 C-9.74582489 78.32546356 -9.74222961 77.5435968 -9.73852539 76.73803711 C-9.73867142 75.91859116 -9.73881744 75.0991452 -9.7389679 74.25486755 C-9.73826852 71.53316647 -9.73047501 68.81153295 -9.72265625 66.08984375 C-9.72079216 64.20797259 -9.71936821 62.32610094 -9.71836853 60.44422913 C-9.71454267 55.48101471 -9.70471181 50.51782936 -9.69366455 45.55462646 C-9.6834519 40.49410394 -9.67887122 35.43357673 -9.67382812 30.37304688 C-9.6630896 20.43618512 -9.64601236 10.49934497 -9.625 0.5625 C-6.5270403 -0.98647985 -3.36283448 -0.26989539 0 0 Z M9 18.25 C5.77271413 24.58253151 6.19177445 34.32814791 8.0703125 41.05078125 C9.56420793 43.98208027 11.48757283 45.64437115 14.125 47.5625 C18.21656802 48.82144401 21.30482851 48.93880541 25.375 47.5625 C29.12107372 44.63079013 30.927395 42.03864703 32.375 37.5625 C33.10123691 30.49435703 33.42832927 23.29471649 29.64453125 17.05078125 C26.93604678 13.87560407 23.89980837 12.79122125 19.875 12.1875 C15.04876596 12.91143511 12.22623183 14.59926398 9 18.25 Z " fill="#1675F3" transform="translate(779.625,84.4375)"/>
<path d="M0 0 C17.82 0 35.64 0 54 0 C54 4.29 54 8.58 54 13 C42.12 13.33 30.24 13.66 18 14 C17.67 19.61 17.34 25.22 17 31 C18.32 30.67 19.64 30.34 21 30 C23.172194 29.98439415 25.34519035 30.03230324 27.515625 30.12109375 C28.76601563 30.16943359 30.01640625 30.21777344 31.3046875 30.26757812 C32.60664062 30.32365234 33.90859375 30.37972656 35.25 30.4375 C36.56742188 30.48970703 37.88484375 30.54191406 39.2421875 30.59570312 C42.49499995 30.7253442 45.7475313 30.86200361 49 31 C49 35.29 49 39.58 49 44 C46.05383462 45.47308269 43.52237406 45.00294692 40.2421875 44.87890625 C39.24761032 44.84348976 39.24761032 44.84348976 38.23294067 44.80735779 C36.11340871 44.73073184 33.99424315 44.64670357 31.875 44.5625 C30.43882006 44.50927819 29.0026222 44.4565378 27.56640625 44.40429688 C24.04397114 44.27602323 20.52212842 44.1377487 17 44 C17 51.26 17 58.52 17 66 C29.21 66 41.42 66 54 66 C54 70.62 54 75.24 54 80 C46.47029868 80.02464032 38.94062061 80.04283141 31.41088867 80.05493164 C28.84708243 80.0599737 26.28327909 80.06680714 23.71948242 80.07543945 C20.04344979 80.08751064 16.36745502 80.09322942 12.69140625 80.09765625 C11.53725723 80.10281754 10.38310822 80.10797882 9.19398499 80.11329651 C8.13296066 80.11337204 7.07193634 80.11344757 5.97875977 80.11352539 C5.03944107 80.115746 4.10012238 80.11796661 3.13233948 80.12025452 C1 80 1 80 0 79 C-0.09500548 76.53555943 -0.12557985 74.09925374 -0.11352539 71.63452148 C-0.11367142 70.86384338 -0.11381744 70.09316528 -0.1139679 69.2991333 C-0.1132686 66.73975861 -0.10547545 64.1804558 -0.09765625 61.62109375 C-0.09579213 59.85132385 -0.0943682 58.08155344 -0.09336853 56.31178284 C-0.08954288 51.64448634 -0.0797122 46.97722077 -0.06866455 42.30993652 C-0.05665707 36.714924 -0.05204841 31.11990116 -0.04621124 25.52487946 C-0.03650047 17.01656477 -0.01734425 8.50831798 0 0 Z " fill="#1675F4" transform="translate(488,66)"/>
<path d="M0 0 C2.53798696 0.09095676 5.03326771 0.23715174 7.5625 0.4375 C11.2440625 0.7159375 11.2440625 0.7159375 15 1 C15.33 10.9 15.66 20.8 16 31 C18.31 29.02 20.62 27.04 23 25 C29.04375024 22.98541659 37.22840617 22.92678224 43.40234375 24.68359375 C47.53714559 26.864091 49.91472568 29.90668373 52 34 C53.94674755 40.33738116 54.27325485 46.48035398 54.1953125 53.06640625 C54.1924826 53.98590561 54.18965271 54.90540497 54.18673706 55.85276794 C54.17564584 58.75615093 54.15056263 61.65921209 54.125 64.5625 C54.11495588 66.54491738 54.10583255 68.52733966 54.09765625 70.50976562 C54.07574286 75.33996555 54.04129081 80.16992843 54 85 C50.76127868 86.07957377 48.33971795 86.13326784 44.9375 86.125 C43.87402344 86.12757813 42.81054688 86.13015625 41.71484375 86.1328125 C39 86 39 86 37 85 C36.99589111 83.75387939 36.99178223 82.50775879 36.98754883 81.22387695 C36.96574633 76.59227362 36.91144485 71.96151846 36.84741211 67.33032227 C36.82424189 65.32747539 36.80983868 63.32450683 36.80444336 61.3215332 C36.79514667 58.43884546 36.75414094 55.55806881 36.70703125 52.67578125 C36.7109639 51.78288895 36.71489655 50.88999664 36.71894836 49.970047 C36.61384292 45.4727678 36.45042234 43.57666147 33.59838867 39.92529297 C30.82171255 37.86789676 29.86503798 37.3681728 26.5 37.8125 C23.15838118 38.39728329 21.26706509 39.21273238 19 41.75 C15.76376415 47.00888325 15.82037779 52.08980789 15.68359375 58.14453125 C15.66281265 58.91431808 15.64203156 59.68410492 15.62062073 60.47721863 C15.55553951 62.92222667 15.49643409 65.36733683 15.4375 67.8125 C15.39427532 69.47592177 15.35065979 71.13933344 15.30664062 72.80273438 C15.19990093 76.86838648 15.09851829 80.93414071 15 85 C12.13366205 86.43316898 9.62764499 86.13200361 6.4375 86.125 C4.67212891 86.12886719 4.67212891 86.12886719 2.87109375 86.1328125 C0 86 0 86 -1 85 C-1.10041457 82.38849712 -1.13617057 79.80341635 -1.12939453 77.19140625 C-1.13114685 76.37356659 -1.13289917 75.55572693 -1.13470459 74.71310425 C-1.13912385 71.9962149 -1.13618486 69.27939007 -1.1328125 66.5625 C-1.13348552 64.68302396 -1.13445553 62.80354801 -1.13571167 60.92407227 C-1.13718874 56.97964654 -1.13503379 53.03524342 -1.13037109 49.09082031 C-1.1246738 44.02287497 -1.12795276 38.95498258 -1.13394356 33.88703918 C-1.13754892 30.00443113 -1.1364107 26.12183572 -1.13381577 22.23922729 C-1.13314643 20.37002557 -1.13397516 18.50082272 -1.13629532 16.63162231 C-1.13882143 14.02391496 -1.13498184 11.41629459 -1.12939453 8.80859375 C-1.13141876 8.02829803 -1.13344299 7.24800232 -1.13552856 6.44406128 C-1.11426253 1.11426253 -1.11426253 1.11426253 0 0 Z " fill="#1675F3" transform="translate(601,60)"/>
<path d="M0 0 C2.00390625 1.125 2.00390625 1.125 3.6875 2.25 C5.04875 3.11625 5.04875 3.11625 6.4375 4 C13.65892564 11.22142564 15.74071981 19.14271281 16 29.125 C15.81848606 39.11894396 13.67918371 46.90107697 6.6875 54.25 C0.17005287 59.40964564 -6.04130144 60.64186388 -14.125 60.625 C-14.92381592 60.62338867 -15.72263184 60.62177734 -16.5456543 60.62011719 C-22.53512386 60.49540025 -27.25179843 59.63162889 -32.3125 56.25 C-33.22 55.6725 -34.1275 55.095 -35.0625 54.5 C-42.28392564 47.27857436 -44.36571981 39.35728719 -44.625 29.375 C-44.4226808 18.84316178 -42.0301667 10.73842907 -34.3125 3.25 C-25.01626489 -2.92474699 -10.38346708 -4.49538897 0 0 Z M-24.3125 15.25 C-28.65471259 21.61042408 -28.18829141 30.38975216 -26.87890625 37.65625 C-25.77646532 41.32648814 -24.37402728 43.63146625 -21.1875 45.8125 C-16.87177896 47.8606388 -12.81078352 47.70160369 -8.3125 46.25 C-4.15098567 43.15099997 -2.32446354 40.3098177 -1.3125 35.25 C-0.77797678 28.48255421 -0.32337915 21.09321928 -4.3125 15.25 C-7.29146909 12.60202748 -10.36936634 11.40718894 -14.3125 10.75 C-18.25563366 11.40718894 -21.33353091 12.60202748 -24.3125 15.25 Z " fill="#1574F4" transform="translate(742.3125,85.75)"/>
<path d="M0 0 C0.81210937 -0.02449219 1.62421875 -0.04898438 2.4609375 -0.07421875 C8.32403862 -0.10240674 12.73302477 1.07724254 17.625 4.375 C22.45986208 9.45780372 22.79511565 13.78561258 22.94140625 20.54296875 C22.96218735 21.33778152 22.98296844 22.1325943 23.00437927 22.95149231 C23.06972087 25.48840763 23.12868808 28.02542573 23.1875 30.5625 C23.23069986 32.28321372 23.27431463 34.00391708 23.31835938 35.72460938 C23.42538648 39.94130113 23.52669724 44.1580962 23.625 48.375 C25.605 48.375 27.585 48.375 29.625 48.375 C30.87569801 50.87639602 30.75802467 52.64892691 30.75 55.4375 C30.75386719 56.78521484 30.75386719 56.78521484 30.7578125 58.16015625 C30.625 60.375 30.625 60.375 29.625 61.375 C27.18855304 61.58298937 24.81531774 61.69944728 22.375 61.75 C21.37146484 61.80607422 21.37146484 61.80607422 20.34765625 61.86328125 C16.3071135 61.93472503 14.83866614 61.56356329 11.765625 58.8515625 C11.05921875 58.03429687 10.3528125 57.21703125 9.625 56.375 C8.965 56.375 8.305 56.375 7.625 56.375 C6.820625 57.179375 6.01625 57.98375 5.1875 58.8125 C1.16212899 62.83787101 -2.18768169 62.55972026 -7.6875 62.625 C-8.98300781 62.65078125 -10.27851562 62.6765625 -11.61328125 62.703125 C-16.79180933 62.25141539 -20.05669818 60.76654081 -23.625 57 C-27.47463827 51.2255426 -28.07874569 46.22552448 -27.375 39.375 C-25.69935077 34.6126285 -23.64481933 32.04363708 -19.375 29.375 C-12.73637936 26.4699131 -5.85141244 24.62763697 1.19140625 22.98828125 C3.61225854 22.47099053 3.61225854 22.47099053 5.625 21.375 C6.46811576 19.50316413 6.46811576 19.50316413 6.625 17.375 C4.90834618 14.09840015 4.90834618 14.09840015 1.5625 13.5 C-5.82554227 13.26545898 -10.76470378 15.72646884 -16.375 20.375 C-17.695 20.375 -19.015 20.375 -20.375 20.375 C-21.89453125 18.765625 -21.89453125 18.765625 -23.1875 16.625 C-23.62707031 15.92890625 -24.06664062 15.2328125 -24.51953125 14.515625 C-25.375 12.375 -25.375 12.375 -25.2734375 10.3046875 C-24.06240838 7.70360757 -22.59275156 6.78903869 -20.1875 5.25 C-19.43082031 4.75242187 -18.67414062 4.25484375 -17.89453125 3.7421875 C-11.93653018 0.50916366 -6.64039915 0.01044088 0 0 Z M-0.25 34.1875 C-1.50554688 34.52394531 -2.76109375 34.86039063 -4.0546875 35.20703125 C-7.10072369 36.27851928 -8.50829805 36.82230158 -10.375 39.375 C-11.36502739 42.2689262 -11.43509508 44.05198895 -10.875 47.0625 C-9.46891685 49.6970269 -9.46891685 49.6970269 -6.0625 50.8125 C-2.1330739 51.41190398 -0.70681643 51.44612913 2.625 49.375 C6.42268069 45.26084592 7.7679921 42.24145457 7.6875 36.6875 C7.67847656 35.87925781 7.66945313 35.07101563 7.66015625 34.23828125 C7.64855469 33.62339844 7.63695312 33.00851563 7.625 32.375 C5.04095146 32.375 2.20254632 33.51793981 -0.25 34.1875 Z " fill="#1675F3" transform="translate(896.375,83.625)"/>
<path d="M0 0 C2.55630493 -0.36076355 2.55630493 -0.36076355 5.82666016 -0.34057617 C7.04777496 -0.34034958 8.26888977 -0.34012299 9.52700806 -0.33988953 C10.86436323 -0.32456852 12.2017147 -0.30892051 13.5390625 -0.29296875 C14.90383438 -0.28737422 16.26861228 -0.28310344 17.63339233 -0.28010559 C21.22730107 -0.2686454 24.82084667 -0.23916871 28.41461182 -0.20599365 C32.0810454 -0.17531771 35.7475376 -0.16160559 39.4140625 -0.14648438 C46.60954064 -0.11429964 53.80471946 -0.06308972 61 0 C63.2924236 4.36573521 63.31330659 7.06542128 63 12 C61 15 61 15 58.84521484 15.43237305 C57.97590332 15.45855713 57.1065918 15.48474121 56.2109375 15.51171875 C55.26992188 15.54716797 54.32890625 15.58261719 53.359375 15.61914062 C52.37453125 15.64169922 51.3896875 15.66425781 50.375 15.6875 C48.88613281 15.73874023 48.88613281 15.73874023 47.3671875 15.79101562 C44.91157094 15.87365657 42.45631859 15.94275127 40 16 C40.00523682 17.12156494 40.01047363 18.24312988 40.01586914 19.39868164 C40.19097687 60.45521894 40.19097687 60.45521894 39 80 C36.02958551 81.48520725 33.30235553 81.1705822 30 81.1875 C28.1128125 81.20876953 28.1128125 81.20876953 26.1875 81.23046875 C23 81 23 81 21 79 C20.7215271 76.36776733 20.7215271 76.36776733 20.68115234 72.98974609 C20.66128265 71.72858978 20.64141296 70.46743347 20.62094116 69.1680603 C20.60906386 67.78652115 20.59740105 66.40498014 20.5859375 65.0234375 C20.5672329 63.61380876 20.54766002 62.20419129 20.5272522 60.79458618 C20.47584988 57.08254638 20.43626781 53.37047023 20.39910889 49.65826416 C20.35911978 45.87104241 20.30800429 42.08397285 20.2578125 38.296875 C20.16095743 30.86468762 20.07658363 23.43242683 20 16 C19.39937744 15.97494385 18.79875488 15.9498877 18.17993164 15.92407227 C15.47388563 15.8084472 12.76821717 15.68557064 10.0625 15.5625 C9.11697266 15.52318359 8.17144531 15.48386719 7.19726562 15.44335938 C5.84858398 15.38051758 5.84858398 15.38051758 4.47265625 15.31640625 C3.64000244 15.27974854 2.80734863 15.24309082 1.94946289 15.20532227 C0 15 0 15 -1 14 C-1.28752439 12.21676795 -1.50590214 10.4221113 -1.6875 8.625 C-1.79449219 7.64789063 -1.90148437 6.67078125 -2.01171875 5.6640625 C-2 3 -2 3 0 0 Z " fill="#EEE7E5" transform="translate(233,65)"/>
<path d="M0 0 C1.61430153 0.00213753 1.61430153 0.00213753 3.26121521 0.00431824 C4.47910233 0.00124161 5.69698944 -0.00183502 6.95178223 -0.00500488 C8.28596688 0.00189233 9.62014967 0.00915926 10.95433044 0.01676941 C12.31671098 0.01796114 13.67909235 0.01841439 15.04147339 0.01815796 C17.89716227 0.01972293 20.75272582 0.02801436 23.60838318 0.04142761 C27.27618307 0.05843363 30.94384533 0.06224151 34.61168003 0.06148243 C37.42457401 0.0617538 40.23743766 0.06722935 43.05032158 0.07448387 C44.40316984 0.07767464 45.75602155 0.0796389 47.10887337 0.08037758 C48.99560398 0.08253589 50.88232188 0.09206541 52.76902771 0.10197449 C53.84443314 0.10578629 54.91983856 0.10959808 56.02783203 0.11352539 C58.45042419 0.24723816 58.45042419 0.24723816 59.45042419 1.24723816 C59.57557348 3.22343263 59.62615179 5.20461989 59.63792419 7.18473816 C59.65210388 8.2662616 59.66628357 9.34778503 59.68089294 10.46208191 C59.45042419 13.24723816 59.45042419 13.24723816 57.45042419 15.24723816 C55.29563904 15.47428894 55.29563904 15.47428894 52.66136169 15.44255066 C51.72034607 15.43610535 50.77933044 15.42966003 49.80979919 15.42301941 C48.82495544 15.4062616 47.84011169 15.38950378 46.82542419 15.37223816 C45.83284607 15.36321472 44.84026794 15.35419128 43.81761169 15.34489441 C41.36164285 15.32127932 38.90615251 15.28834615 36.45042419 15.24723816 C36.45486542 16.02984512 36.45930664 16.81245209 36.46388245 17.61877441 C36.50394047 24.99062092 36.53439903 32.36241472 36.55404854 39.73434162 C36.5644901 43.52441357 36.57865602 47.31439566 36.6013031 51.10441589 C36.62301832 54.76133293 36.63499001 58.41816347 36.64017868 62.07514 C36.64387682 63.4710088 36.6510983 64.86687282 36.66188431 66.26270485 C36.67638082 68.21624265 36.67724096 70.16986729 36.67747498 72.12345886 C36.6819162 73.23598526 36.68635742 74.34851166 36.69093323 75.49475098 C36.45042419 78.24723816 36.45042419 78.24723816 34.45042419 81.24723816 C31.83986825 81.49614474 29.48947497 81.57453586 26.88792419 81.49723816 C25.84088318 81.48950378 25.84088318 81.48950378 24.77268982 81.48161316 C19.60459599 81.40140996 19.60459599 81.40140996 18.45042419 80.24723816 C18.32673095 78.25372386 18.27246029 76.25587345 18.24510193 74.25871277 C18.22515671 72.97746017 18.20521149 71.69620758 18.18466187 70.37612915 C18.16767622 68.96728132 18.15079746 67.55843221 18.13401794 66.14958191 C18.11345504 64.71610911 18.09245875 63.28264247 18.07104492 61.84918213 C18.0157556 58.06970696 17.96637674 54.29017646 17.91819763 50.51060486 C17.86803254 46.65648961 17.81232048 42.80245507 17.75706482 38.94841003 C17.6493994 31.38142102 17.54797323 23.81436506 17.45042419 16.24723816 C16.61064026 16.22536438 16.61064026 16.22536438 15.75389099 16.20304871 C13.21454282 16.12852464 10.67650342 16.03188235 8.13792419 15.93473816 C6.81631287 15.90090027 6.81631287 15.90090027 5.46800232 15.86637878 C4.62044373 15.83092957 3.77288513 15.79548035 2.89964294 15.75895691 C1.72921448 15.71968079 1.72921448 15.71968079 0.53514099 15.67961121 C-2.04239601 15.14502659 -2.95991841 14.31460351 -4.54957581 12.24723816 C-4.91285706 9.83708191 -4.91285706 9.83708191 -4.86207581 7.18473816 C-4.85820862 6.3068866 -4.85434143 5.42903503 -4.85035706 4.52458191 C-4.40254674 1.13401807 -3.36505963 0.32631748 0 0 Z " fill="#EEE6E5" transform="translate(387.54957580566406,64.75276184082031)"/>
<path d="M0 0 C0.495 6.93 0.495 6.93 1 14 C6.28 14.33 11.56 14.66 17 15 C17 18.96 17 22.92 17 27 C11.72 27.33 6.44 27.66 1 28 C0.94607496 32.56265787 0.9063596 37.12467884 0.875 41.6875 C0.85824219 42.98107422 0.84148438 44.27464844 0.82421875 45.60742188 C0.81777344 46.85458984 0.81132813 48.10175781 0.8046875 49.38671875 C0.79421387 50.53358154 0.78374023 51.68044434 0.77294922 52.86206055 C1.00266829 56.03687697 1.48920657 58.20519118 3 61 C7.54931253 62.550902 10.62671934 61.77013741 15 60 C18.9751239 67.83082348 18.9751239 67.83082348 19.0625 71.9375 C18 74 18 74 15.9296875 75.109375 C12.27991038 76.21890725 8.84018751 76.33003801 5.0625 76.3125 C4.02706055 76.33666992 4.02706055 76.33666992 2.97070312 76.36132812 C-1.77876751 76.36582999 -4.97545608 75.49839916 -9 73 C-14.34114484 67.53746551 -16.22828756 62.76715109 -16.22659302 55.13638306 C-16.21627045 54.42364227 -16.20594788 53.71090149 -16.1953125 52.9765625 C-16.1924826 52.23038666 -16.18965271 51.48421082 -16.18673706 50.71542358 C-16.17561687 48.35178012 -16.15052821 45.98852732 -16.125 43.625 C-16.11495962 42.01432842 -16.10583562 40.40365085 -16.09765625 38.79296875 C-16.0757044 34.86183056 -16.04123185 30.93098133 -16 27 C-18.97 27 -21.94 27 -25 27 C-25 23.04 -25 19.08 -25 15 C-21.8035914 13.93453047 -19.34252724 13.92572162 -16 14 C-16 10.37 -16 6.74 -16 3 C-13.70887834 2.49750857 -11.41708499 1.99807883 -9.125 1.5 C-7.21074219 1.08234375 -7.21074219 1.08234375 -5.2578125 0.65625 C-2 0 -2 0 0 0 Z " fill="#1675F3" transform="translate(572,70)"/>
<path d="M0 0 C0.70253906 0.00386719 1.40507813 0.00773437 2.12890625 0.01171875 C2.83144531 0.00785156 3.53398438 0.00398438 4.2578125 0 C9.50229247 0.01010497 9.50229247 0.01010497 10.62890625 1.13671875 C10.72277006 3.00852815 10.74634429 4.88389935 10.74243164 6.75805664 C10.74235611 7.95922623 10.74228058 9.16039581 10.74220276 10.39796448 C10.73704147 11.70522995 10.73188019 13.01249542 10.7265625 14.359375 C10.72469823 15.70316007 10.72327437 17.04694582 10.72227478 18.39073181 C10.71845027 21.93354152 10.70862057 25.47631045 10.6975708 29.019104 C10.68735524 32.63187102 10.68277685 36.24464459 10.67773438 39.85742188 C10.66699823 46.95053755 10.64992261 54.04362549 10.62890625 61.13671875 C6.97009747 61.91173357 3.62491788 62.27184311 -0.12109375 62.26171875 C-1.56742188 62.26558594 -1.56742188 62.26558594 -3.04296875 62.26953125 C-5.37109375 62.13671875 -5.37109375 62.13671875 -6.37109375 61.13671875 C-6.47019935 59.27036087 -6.49908636 57.40023681 -6.50048828 55.53125 C-6.50364044 54.33330811 -6.5067926 53.13536621 -6.51004028 51.90112305 C-6.50801605 50.59699463 -6.50599182 49.29286621 -6.50390625 47.94921875 C-6.50457935 46.6078286 -6.50554943 45.26643856 -6.50680542 43.92504883 C-6.50828211 41.11050254 -6.50612879 38.29598793 -6.50146484 35.48144531 C-6.49576756 31.86631244 -6.49904672 28.2512538 -6.50503731 24.63612366 C-6.50864372 21.86526933 -6.50750397 19.09443273 -6.50490952 16.32357788 C-6.50391408 14.33982292 -6.50696116 12.35606728 -6.51004028 10.37231445 C-6.50688812 9.17437256 -6.50373596 7.97643066 -6.50048828 6.7421875 C-6.49969269 5.68153076 -6.49889709 4.62087402 -6.49807739 3.52807617 C-6.26029141 -0.94991226 -3.93459094 0.0075811 0 0 Z " fill="#1674F2" transform="translate(847.37109375,83.86328125)"/>
<path d="M0 0 C0.70253906 0.00386719 1.40507813 0.00773437 2.12890625 0.01171875 C2.83144531 0.00785156 3.53398438 0.00398438 4.2578125 0 C9.50229247 0.01010497 9.50229247 0.01010497 10.62890625 1.13671875 C10.72277006 3.00852815 10.74634429 4.88389935 10.74243164 6.75805664 C10.74235611 7.95922623 10.74228058 9.16039581 10.74220276 10.39796448 C10.73704147 11.70522995 10.73188019 13.01249542 10.7265625 14.359375 C10.72469823 15.70316007 10.72327437 17.04694582 10.72227478 18.39073181 C10.71845027 21.93354152 10.70862057 25.47631045 10.6975708 29.019104 C10.68735524 32.63187102 10.68277685 36.24464459 10.67773438 39.85742188 C10.66699823 46.95053755 10.64992261 54.04362549 10.62890625 61.13671875 C7.77695403 62.56269486 5.3042945 62.26874395 2.12890625 62.26171875 C0.3809375 62.26558594 0.3809375 62.26558594 -1.40234375 62.26953125 C-4.37109375 62.13671875 -4.37109375 62.13671875 -6.37109375 61.13671875 C-6.39422167 53.3309668 -6.41201113 45.5252228 -6.42290592 37.71944523 C-6.42813377 34.09525915 -6.43522962 30.47109645 -6.4465332 26.84692383 C-6.45736559 23.352119 -6.46337133 19.85733671 -6.46597099 16.3625164 C-6.46872926 14.37432486 -6.47654063 12.38614244 -6.48439026 10.39796448 C-6.48446579 9.19679489 -6.48454132 7.99562531 -6.48461914 6.75805664 C-6.48683975 5.6943837 -6.48906036 4.63071075 -6.49134827 3.5348053 C-6.26638897 -0.95127875 -3.93941224 0.00759039 0 0 Z " fill="#1575F5" transform="translate(675.37109375,83.86328125)"/>
<path d="M0 0 C1.08946678 -0.0049926 1.08946678 -0.0049926 2.20094299 -0.01008606 C3.74015671 -0.015158 5.27938145 -0.0174943 6.81860352 -0.01733398 C9.17808096 -0.01951891 11.53708986 -0.0376669 13.89648438 -0.05664062 C15.38932131 -0.05957477 16.88216048 -0.06155942 18.375 -0.0625 C19.43756264 -0.07327827 19.43756264 -0.07327827 20.52159119 -0.08427429 C25.52508288 -0.06085462 25.52508288 -0.06085462 27.75390625 2.16796875 C27.984375 4.2265625 27.984375 4.2265625 27.94140625 6.60546875 C27.93496094 7.38792969 27.92851562 8.17039062 27.921875 8.9765625 C27.75390625 11.16796875 27.75390625 11.16796875 26.75390625 14.16796875 C23.80670016 15.6415718 20.82355257 15.31030471 17.59375 15.30078125 C16.88867813 15.30173798 16.18360626 15.3026947 15.45716858 15.30368042 C13.96680614 15.30436104 12.47644073 15.30251496 10.98608398 15.29833984 C8.69703567 15.29298193 6.40818288 15.29829284 4.11914062 15.3046875 C2.67317665 15.30402685 1.22721279 15.30274597 -0.21875 15.30078125 C-1.25153831 15.3038176 -1.25153831 15.3038176 -2.30519104 15.30691528 C-7.13113611 15.28292639 -7.13113611 15.28292639 -8.24609375 14.16796875 C-8.34502315 12.00316078 -8.37580475 9.8350309 -8.37109375 7.66796875 C-8.37367188 6.48203125 -8.37625 5.29609375 -8.37890625 4.07421875 C-8.12805902 -1.41490882 -4.51666451 0.00707525 0 0 Z " fill="#EDE6E6" transform="translate(450.24609375,98.83203125)"/>
<path d="M0 0 C1.46179688 0.05414063 1.46179688 0.05414063 2.953125 0.109375 C5.34545451 0.20319184 7.73574599 0.34667889 10.125 0.5 C10.125 4.79 10.125 9.08 10.125 13.5 C1.545 13.5 -7.035 13.5 -15.875 13.5 C-3.005 13.995 -3.005 13.995 10.125 14.5 C10.125 15.82 10.125 17.14 10.125 18.5 C-0.105 18.5 -10.335 18.5 -20.875 18.5 C-13.10562731 -0.92343173 -13.10562731 -0.92343173 0 0 Z " fill="#5146E4" transform="translate(149.875,54.5)"/>
<path d="M0 0 C1.32 0.66 2.64 1.32 4 2 C4 2.99 4 3.98 4 5 C7.3 5.33 10.6 5.66 14 6 C14 7.32 14 8.64 14 10 C8.72 10 3.44 10 -2 10 C0.97 10.495 0.97 10.495 4 11 C4 12.32 4 13.64 4 15 C8.95 15.33 13.9 15.66 19 16 C19 16.99 19 17.98 19 19 C51.67 19.495 51.67 19.495 85 20 C85 20.33 85 20.66 85 21 C64.68154246 21.78391355 44.38851891 22.18848522 24.05517578 22.18530273 C20.39172848 22.18519827 16.72846292 22.19920804 13.06505966 22.21607494 C10.19982007 22.22714178 7.33462676 22.22922413 4.46936798 22.22869301 C2.46456974 22.23043172 0.45978589 22.24123876 -1.54498291 22.25224304 C-2.74604675 22.24916641 -3.9471106 22.24608978 -5.18457031 22.24291992 C-6.23912415 22.24434494 -7.29367798 22.24576996 -8.38018799 22.24723816 C-11 22 -11 22 -14 20 C-13.21625 19.278125 -12.4325 18.55625 -11.625 17.8125 C-9.10172843 15.10899475 -8.24568309 13.38113981 -7 10 C-6 9 -5 8 -4 7 C-2.57467274 4.71021433 -1.29562215 2.36786117 0 0 Z " fill="#5348D6" transform="translate(60,133)"/>
<path d="M0 0 C3.125 1.375 3.125 1.375 5 4 C5.69282429 7.47566854 5.69282429 10.52433146 5 14 C3.125 16.625 3.125 16.625 0 18 C-4.58137589 18.69571783 -8.46961666 18.80162937 -12.625 16.625 C-14.79453746 12.48315576 -14.71310035 8.56687674 -14 4 C-11.14628614 -1.44799919 -5.44737769 -0.82722698 0 0 Z " fill="#1D72EA" transform="translate(682,60)"/>
<path d="M0 0 C3.125 1.375 3.125 1.375 5 4 C5.69282429 7.47566854 5.69282429 10.52433146 5 14 C3.125 16.625 3.125 16.625 0 18 C-4.58137589 18.69571783 -8.46961666 18.80162937 -12.625 16.625 C-14.79453746 12.48315576 -14.71310035 8.56687674 -14 4 C-11.14628614 -1.44799919 -5.44737769 -0.82722698 0 0 Z " fill="#1973EE" transform="translate(854,60)"/>
<path d="M0 0 C0.33 0 0.66 0 1 0 C1 7.92 1 15.84 1 24 C16.51 24 32.02 24 48 24 C44.31885299 26.45409801 42.72960152 26.16723151 38.36328125 25.9765625 C36.41518555 25.89921875 36.41518555 25.89921875 34.42773438 25.8203125 C33.05597882 25.75543549 31.68423413 25.69032837 30.3125 25.625 C28.92907674 25.56674379 27.54561298 25.50944085 26.16210938 25.453125 C22.77422369 25.31147124 19.38705896 25.16003846 16 25 C16 26.32 16 27.64 16 29 C24.91 29 33.82 29 43 29 C43 29.33 43 29.66 43 30 C34.09 30 25.18 30 16 30 C16 31.32 16 32.64 16 34 C23.92 34 31.84 34 40 34 C40 34.33 40 34.66 40 35 C32.08 35 24.16 35 16 35 C16 36.32 16 37.64 16 39 C22.27 39 28.54 39 35 39 C35 39.33 35 39.66 35 40 C28.73 40 22.46 40 16 40 C16 41.32 16 42.64 16 44 C14.02 44 12.04 44 10 44 C10 42.68 10 41.36 10 40 C9.01 39.67 8.02 39.34 7 39 C7.99 39 8.98 39 10 39 C10.33 37.68 10.66 36.36 11 35 C11 36.32 11 37.64 11 39 C12.32 39 13.64 39 15 39 C15 37.68 15 36.36 15 35 C14.01 34.67 13.02 34.34 12 34 C12.99 34 13.98 34 15 34 C15 31.03 15 28.06 15 25 C10.38 25 5.76 25 1 25 C1 26.32 1 27.64 1 29 C2.98 29 4.96 29 7 29 C7 29.33 7 29.66 7 30 C3.37 30 -0.26 30 -4 30 C-3.67 31.65 -3.34 33.3 -3 35 C-11.91 35 -20.82 35 -30 35 C-30 34.67 -30 34.34 -30 34 C-21.75 34 -13.5 34 -5 34 C-5 32.68 -5 31.36 -5 30 C-6.32 29.67 -7.64 29.34 -9 29 C-6.03 29 -3.06 29 0 29 C0 27.68 0 26.36 0 25 C-0.763125 25.20625 -1.52625 25.4125 -2.3125 25.625 C-5 26 -5 26 -8 24 C-5.36 24 -2.72 24 0 24 C0 16.08 0 8.16 0 0 Z " fill="#5A4FEB" transform="translate(109,109)"/>
<path d="M0 0 C0 2.83967231 -0.40267181 5.23735711 -1 8 C-0.34 8.33 0.32 8.66 1 9 C1.33 9.66 1.66 10.32 2 11 C29.06 11.33 56.12 11.66 84 12 C84.33 11.01 84.66 10.02 85 9 C85 10.32 85 11.64 85 13 C83.14418034 14.85581966 80.50601694 14.12004366 78.03713989 14.12442017 C77.18046722 14.12082489 76.32379456 14.11722961 75.44116211 14.11352539 C74.54368759 14.11367142 73.64621307 14.11381744 72.72154236 14.1139679 C69.74011866 14.11326842 66.7587566 14.10547441 63.77734375 14.09765625 C61.71611058 14.09579219 59.65487696 14.09436823 57.59364319 14.09336853 C52.1569599 14.08954237 46.72030314 14.07971126 41.28363037 14.06866455 C35.74052286 14.05845253 30.19741108 14.05387136 24.65429688 14.04882812 C13.76951957 14.03808908 2.88476198 14.02101149 -8 14 C-7.18722884 10.24660186 -5.69832318 7.87404658 -3.4375 4.75 C-2.79683594 3.85796875 -2.15617188 2.9659375 -1.49609375 2.046875 C-0.75552734 1.03367187 -0.75552734 1.03367187 0 0 Z " fill="#3179D9" transform="translate(11,93)"/>
<path d="M0 0 C7.86013216 0.48705947 7.86013216 0.48705947 11.5 2.125 C13.80969132 5.01211415 13.93712176 7.35306206 14 11 C12.875 13.875 12.875 13.875 11 16 C8.3125 16.8125 8.3125 16.8125 6 17 C6.33 16.34 6.66 15.68 7 15 C6.03114628 13.31503702 5.03013277 11.64821244 4 10 C4 9.34 4 8.68 4 8 C2.68 8 1.36 8 0 8 C0 5.36 0 2.72 0 0 Z " fill="#1374F7" transform="translate(672,60)"/>
<path d="M0 0 C0 0.33 0 0.66 0 1 C-2.97 1 -5.94 1 -9 1 C-9 5.29 -9 9.58 -9 14 C-7.68 14.33 -6.36 14.66 -5 15 C-6.32 15 -7.64 15 -9 15 C-9 16.65 -9 18.3 -9 20 C-26.325 20.495 -26.325 20.495 -44 21 C-42.21844267 17.43688534 -40.83236991 15.64354525 -38 13 C-38.66 14.65 -39.32 16.3 -40 18 C-39.01 18.33 -38.02 18.66 -37 19 C-36.67 18.34 -36.34 17.68 -36 17 C-36 17.66 -36 18.32 -36 19 C-27.42 19 -18.84 19 -10 19 C-10 17.68 -10 16.36 -10 15 C-18.91 15 -27.82 15 -37 15 C-36.67 14.34 -36.34 13.68 -36 13 C-23.13 13.495 -23.13 13.495 -10 14 C-10 9.71 -10 5.42 -10 1 C-16.6 1 -23.2 1 -30 1 C-30 0.67 -30 0.34 -30 0 C-8.99082569 -1.34862385 -8.99082569 -1.34862385 0 0 Z " fill="#5951DB" transform="translate(170,54)"/>
<path d="M0 0 C0.66 0 1.32 0 2 0 C2.33 1.65 2.66 3.3 3 5 C3.94875 4.175 4.8975 3.35 5.875 2.5 C8.75 0 8.75 0 11 0 C11.125 3.375 11.125 3.375 11 7 C10.34 7.66 9.68 8.32 9 9 C8.01 9 7.02 9 6 9 C6 9.66 6 10.32 6 11 C8.97 11.495 8.97 11.495 12 12 C11.01 12.66 10.02 13.32 9 14 C3.5709662 19.04124568 2.84667306 22.50349422 2.4375 29.6875 C2.39431641 30.38939453 2.35113281 31.09128906 2.30664062 31.81445312 C2.2008264 33.54275206 2.09993419 35.2713511 2 37 C1.67 37 1.34 37 1 37 C1 30.4 1 23.8 1 17 C1.99 17 2.98 17 4 17 C4.33 15.68 4.66 14.36 5 13 C4.01 13.33 3.02 13.66 2 14 C2.226875 13.401875 2.45375 12.80375 2.6875 12.1875 C2.790625 11.465625 2.89375 10.74375 3 10 C2.525625 9.566875 2.05125 9.13375 1.5625 8.6875 C0 7 0 7 -0.1875 3.3125 C-0.125625 2.219375 -0.06375 1.12625 0 0 Z " fill="#1C78EB" transform="translate(785,85)"/>
<path d="M0 0 C0.84929077 -0.00014603 1.69858154 -0.00029205 2.5736084 -0.0004425 C5.37095729 0.0002522 8.16823896 0.0080239 10.96557617 0.01586914 C12.90899113 0.01773489 14.85240655 0.01915805 16.79582214 0.02015686 C21.90364894 0.02396968 27.01144717 0.03378942 32.1192627 0.04486084 C37.33430597 0.05510152 42.54935386 0.05966017 47.7644043 0.06469727 C57.99163037 0.07541279 68.21883527 0.09247438 78.44604492 0.11352539 C78.94104492 1.59852539 78.94104492 1.59852539 79.44604492 3.11352539 C78.44995117 4.93774414 78.44995117 4.93774414 77.00854492 6.80102539 C76.29891602 7.73495117 76.29891602 7.73495117 75.57495117 8.68774414 C75.20241211 9.15825195 74.82987305 9.62875977 74.44604492 10.11352539 C73.95104492 8.62852539 73.95104492 8.62852539 73.44604492 7.11352539 C73.77604492 6.45352539 74.10604492 5.79352539 74.44604492 5.11352539 C75.10604492 5.11352539 75.76604492 5.11352539 76.44604492 5.11352539 C76.44604492 4.45352539 76.44604492 3.79352539 76.44604492 3.11352539 C46.74604492 2.78352539 17.04604492 2.45352539 -13.55395508 2.11352539 C-13.55395508 1.78352539 -13.55395508 1.45352539 -13.55395508 1.11352539 C-9.04229375 -0.01797151 -4.61933683 -0.02087618 0 0 Z " fill="#4783D4" transform="translate(82.553955078125,5.886474609375)"/>
<path d="M0 0 C0.66 0 1.32 0 2 0 C1.67 20.13 1.34 40.26 1 61 C0.34 61 -0.32 61 -1 61 C-1.02312792 53.19424805 -1.04091738 45.38850405 -1.05181217 37.58272648 C-1.05704002 33.9585404 -1.06413587 30.3343777 -1.07543945 26.71020508 C-1.08627184 23.21540025 -1.09227758 19.72061796 -1.09487724 16.22579765 C-1.09763551 14.23760611 -1.10544688 12.24942369 -1.11329651 10.26124573 C-1.11337204 9.06007614 -1.11344757 7.85890656 -1.11352539 6.62133789 C-1.115746 5.55766495 -1.11796661 4.493992 -1.12025452 3.39808655 C-1 1 -1 1 0 0 Z " fill="#2C71CF" transform="translate(670,84)"/>
<path d="M0 0 C0.33 0 0.66 0 1 0 C1 19.8 1 39.6 1 60 C0.01 60.495 0.01 60.495 -1 61 C-1.66 60.34 -2.32 59.68 -3 59 C-2.34 59 -1.68 59 -1 59 C-1.00222061 58.27559219 -1.00444122 57.55118439 -1.00672913 56.80482483 C-1.02673227 49.99156547 -1.04197425 43.17831047 -1.05181217 36.36502934 C-1.05703989 32.86191115 -1.0641355 29.35881715 -1.07543945 25.85571289 C-1.08834206 21.83219159 -1.09322912 17.80869586 -1.09765625 13.78515625 C-1.10539818 11.88987938 -1.10539818 11.88987938 -1.11329651 9.95631409 C-1.11337204 8.795186 -1.11344757 7.63405792 -1.11352539 6.43774414 C-1.11685631 4.8955294 -1.11685631 4.8955294 -1.12025452 3.32215881 C-1 1 -1 1 0 0 Z " fill="#2B7AE2" transform="translate(857,85)"/>
<path d="M0 0 C1.32 0 2.64 0 4 0 C4 9.57 4 19.14 4 29 C2.68 29 1.36 29 0 29 C0 19.43 0 9.86 0 0 Z " fill="#5145E3" transform="translate(120,104)"/>
<path d="M0 0 C3.1068009 2.54192801 4.07281312 5.13672134 5 9 C4.9375 11.75 4.9375 11.75 4 14 C-0.28607719 16.38115399 -4.54432659 16.23578866 -9.3125 16.125 C-10.05306641 16.11597656 -10.79363281 16.10695312 -11.55664062 16.09765625 C-13.37123467 16.07424213 -15.18566071 16.03837615 -17 16 C-17 15.67 -17 15.34 -17 15 C-12.05 15 -7.1 15 -2 15 C-2.33 13.02 -2.66 11.04 -3 9 C-3.99 9.33 -4.98 9.66 -6 10 C-6.33 8.68 -6.66 7.36 -7 6 C-6.360625 5.87625 -5.72125 5.7525 -5.0625 5.625 C-4.381875 5.41875 -3.70125 5.2125 -3 5 C-2.67 4.34 -2.34 3.68 -2 3 C-2.99 2.67 -3.98 2.34 -5 2 C-3.35 1.34 -1.7 0.68 0 0 Z " fill="#1475F7" transform="translate(586,130)"/>
<path d="M0 0 C4.53535898 2.0157151 6.11873503 4.48969775 8.203125 8.76953125 C10.30056909 14.64031839 10.13338689 20.62783666 10.09765625 26.7734375 C10.0962413 27.6971817 10.09482635 28.6209259 10.09336853 29.57266235 C10.08779609 32.50680862 10.07524869 35.44087701 10.0625 38.375 C10.05748144 40.37109264 10.05291915 42.36718649 10.04882812 44.36328125 C10.03783569 49.24221725 10.0205901 54.12109545 10 59 C9.34 59 8.68 59 8 59 C7.99857498 58.43116592 7.99714996 57.86233185 7.99568176 57.27626038 C7.97589795 51.32163109 7.92143986 45.36801498 7.84741211 39.41381836 C7.824306 37.19579351 7.80985385 34.97766009 7.80444336 32.75952148 C7.79509997 29.55905067 7.75398988 26.3602702 7.70703125 23.16015625 C7.7109639 22.17854019 7.71489655 21.19692413 7.71894836 20.18556213 C7.57811456 13.44398773 6.10595506 8.43709111 2 3 C1.34 2.67 0.68 2.34 0 2 C0 1.34 0 0.68 0 0 Z " fill="#3577D3" transform="translate(645,86)"/>
<path d="M0 0 C1.65 0.33 3.3 0.66 5 1 C5 1.66 5 2.32 5 3 C4.34 3 3.68 3 3 3 C3 3.66 3 4.32 3 5 C2.34 5 1.68 5 1 5 C1.3403125 6.0828125 1.3403125 6.0828125 1.6875 7.1875 C2 10 2 10 0.8125 12.8125 C0.214375 13.534375 -0.38375 14.25625 -1 15 C-2.32 15 -3.64 15 -5 15 C-5 14.01 -5 13.02 -5 12 C-6.32 12.33 -7.64 12.66 -9 13 C-8.8238342 7.71502591 -8.8238342 7.71502591 -8 5 C-4.9375 2.5 -4.9375 2.5 -2 1 C-2 1.66 -2 2.32 -2 3 C-0.68 2.67 0.64 2.34 2 2 C1.34 1.34 0.68 0.68 0 0 Z " fill="#1375F6" transform="translate(849,61)"/>
<path d="M0 0 C6.31644921 3.73244726 9.47026928 7.80253305 11.75 14.875 C13.91318103 23.43367279 14.05599249 33.41125719 12 42 C11.67 42 11.34 42 11 42 C10.98018066 41.27409668 10.96036133 40.54819336 10.93994141 39.80029297 C10.8443181 36.49151525 10.73478993 33.1833367 10.625 29.875 C10.5940625 28.73289062 10.563125 27.59078125 10.53125 26.4140625 C10.49257813 25.30546875 10.45390625 24.196875 10.4140625 23.0546875 C10.3826416 22.03874512 10.3512207 21.02280273 10.31884766 19.97607422 C9.97069371 16.72645969 9.2375945 14.02223766 8 11 C7.34 10.67 6.68 10.34 6 10 C5.375 7.4375 5.375 7.4375 5 5 C3.35 4.67 1.7 4.34 0 4 C0 2.68 0 1.36 0 0 Z " fill="#3277D4" transform="translate(816,86)"/>
<path d="M0 0 C1.32 0 2.64 0 4 0 C4 6.27 4 12.54 4 19 C2.68 19 1.36 19 0 19 C0 12.73 0 6.46 0 0 Z " fill="#5145E3" transform="translate(161,84)"/>
<path d="M0 0 C0.99 0.66 1.98 1.32 3 2 C3.22137393 4.62697064 3.28162025 7.00893964 3.1875 9.625 C3.17396484 10.33140625 3.16042969 11.0378125 3.14648438 11.765625 C3.1111104 13.51074128 3.05730221 15.25546608 3 17 C1.68 17 0.36 17 -1 17 C-1.07347656 16.07767578 -1.07347656 16.07767578 -1.1484375 15.13671875 C-1.22320312 14.32847656 -1.29796875 13.52023438 -1.375 12.6875 C-1.44460937 11.88699219 -1.51421875 11.08648437 -1.5859375 10.26171875 C-1.89564426 7.72775559 -1.89564426 7.72775559 -4 5 C-3.34 5 -2.68 5 -2 5 C-2 3.68 -2 2.36 -2 1 C-1.34 0.67 -0.68 0.34 0 0 Z " fill="#5246E4" transform="translate(121,86)"/>
<path d="M0 0 C-0.99 0.33 -1.98 0.66 -3 1 C-3 1.99 -3 2.98 -3 4 C-3 8.66666667 -3 13.33333333 -3 18 C-4.32 18 -5.64 18 -7 18 C-7 11.66666667 -7 5.33333333 -7 -1 C-3.51418144 -2.2020064 -3.32007656 -2.21338437 0 0 Z " fill="#5245E4" transform="translate(97,115)"/>
<path d="M0 0 C0.33 0.66 0.66 1.32 1 2 C1.66 2.33 2.32 2.66 3 3 C2.67 3.66 2.34 4.32 2 5 C1.01 5 0.02 5 -1 5 C-1.1546875 5.928125 -1.1546875 5.928125 -1.3125 6.875 C-2 9 -2 9 -5 11 C-5.165 11.680625 -5.33 12.36125 -5.5 13.0625 C-5.665 13.701875 -5.83 14.34125 -6 15 C-6.99 15.33 -7.98 15.66 -9 16 C-9.33 17.65 -9.66 19.3 -10 21 C-10.99 21 -11.98 21 -13 21 C-13 21.99 -13 22.98 -13 24 C-13.99 24.33 -14.98 24.66 -16 25 C-14.61099253 21.05975431 -12.76124508 18.07885976 -10.25 14.75 C-6.66797753 9.93257197 -3.27773314 5.02834061 0 0 Z " fill="#317EE4" transform="translate(42,47)"/>
<path d="M0 0 C1.32 0 2.64 0 4 0 C4 15 4 15 3 18 C2.01 18 1.02 18 0 18 C0 12.06 0 6.12 0 0 Z " fill="#5145E3" transform="translate(176,84)"/>
<path d="M0 0 C0.99 0.33 1.98 0.66 3 1 C5.55362186 8.9296679 6.66429599 19.00711203 4 27 C3.34 27.66 2.68 28.32 2 29 C1.67 29.66 1.34 30.32 1 31 C0.01 30.34 -0.98 29.68 -2 29 C-1.525625 28.2575 -1.05125 27.515 -0.5625 26.75 C3.37957147 19.81195421 2.9076215 10.82636908 1 3.25 C0.67 2.1775 0.34 1.105 0 0 Z " fill="#2873DD" transform="translate(738,101)"/>
<path d="M0 0 C3.70911634 5.99960651 2.72341702 14.37358051 1.39453125 21.03515625 C0.29554905 24.82301875 -0.79910442 27.69865662 -3 31 C-3.66 31 -4.32 31 -5 31 C-5 30.34 -5 29.68 -5 29 C-4.34 29 -3.68 29 -3 29 C-1.39825663 20.5193409 -0.82570121 12.51360058 -1.02734375 3.921875 C-1 1 -1 1 0 0 Z " fill="#2772DF" transform="translate(756,104)"/>
<path d="M0 0 C0.66 0.33 1.32 0.66 2 1 C2.58428335 10.54329472 -1.73479203 16.48557698 -7 24 C-8 21 -8 21 -7 18 C-6.34 18 -5.68 18 -5 18 C-5 17.34 -5 16.68 -5 16 C-4.34 16 -3.68 16 -3 16 C-2.95101562 15.09636719 -2.90203125 14.19273438 -2.8515625 13.26171875 C-2.73941406 11.49248047 -2.73941406 11.49248047 -2.625 9.6875 C-2.55539063 8.51574219 -2.48578125 7.34398438 -2.4140625 6.13671875 C-2 3 -2 3 0 0 Z " fill="#544AD2" transform="translate(168,107)"/>
<path d="M0 0 C0.99 1.32 1.98 2.64 3 4 C0.92384053 7.08821991 -1.1621664 10.16966306 -3.25 13.25 C-3.83652344 14.12269531 -4.42304688 14.99539062 -5.02734375 15.89453125 C-5.60097656 16.73886719 -6.17460937 17.58320313 -6.765625 18.453125 C-7.28930664 19.22817383 -7.81298828 20.00322266 -8.35253906 20.80175781 C-10.06612859 23.08823678 -11.93526079 25.02946942 -14 27 C-14 25.68 -14 24.36 -14 23 C-13.34 23 -12.68 23 -12 23 C-12 22.01 -12 21.02 -12 20 C-11.01 19.34 -10.02 18.68 -9 18 C-7.89163577 16.11683841 -7.89163577 16.11683841 -7 14 C-6.62875 13.29875 -6.2575 12.5975 -5.875 11.875 C-4.85903818 10.04279198 -4.85903818 10.04279198 -5 8 C-4.34 8 -3.68 8 -3 8 C-3 7.34 -3 6.68 -3 6 C-2.01 6 -1.02 6 0 6 C0 4.02 0 2.04 0 0 Z " fill="#2C7AE5" transform="translate(153,14)"/>
<path d="M0 0 C0.66 0.99 1.32 1.98 2 3 C-2.47751159 9.81854556 -6.99557238 16.55490382 -12 23 C-12.33 22.01 -12.66 21.02 -13 20 C-12.34 20 -11.68 20 -11 20 C-10.67 18.02 -10.34 16.04 -10 14 C-9.01 14 -8.02 14 -7 14 C-7.33 12.35 -7.66 10.7 -8 9 C-7.34 8.67 -6.68 8.34 -6 8 C-5.67 7.01 -5.34 6.02 -5 5 C-2.4375 3.8125 -2.4375 3.8125 0 3 C0 2.01 0 1.02 0 0 Z " fill="#564DD4" transform="translate(186,88)"/>
<path d="M0 0 C3.125 2 3.125 2 5 4 C4.67 4.99 4.34 5.98 4 7 C2.35 5.35 0.7 3.7 -1 2 C-1.66 2.66 -2.32 3.32 -3 4 C-3.804375 3.814375 -4.60875 3.62875 -5.4375 3.4375 C-6.7059375 3.2209375 -6.7059375 3.2209375 -8 3 C-9.7087646 4.37514541 -9.7087646 4.37514541 -11 6 C-11.66 6 -12.32 6 -13 6 C-13 8.31 -13 10.62 -13 13 C-13.33 13 -13.66 13 -14 13 C-14.60550459 5.12844037 -14.60550459 5.12844037 -12.625 1.4375 C-8.52035253 -0.81028314 -4.56829792 -0.76753309 0 0 Z " fill="#226EE2" transform="translate(854,60)"/>
<path d="M0 0 C3.1068009 2.54192801 4.07281312 5.13672134 5 9 C4.9375 11.75 4.9375 11.75 4 14 C-0.28607719 16.38115399 -4.54432659 16.23578866 -9.3125 16.125 C-10.05306641 16.11597656 -10.79363281 16.10695312 -11.55664062 16.09765625 C-13.37123467 16.07424213 -15.18566071 16.03837615 -17 16 C-17 15.67 -17 15.34 -17 15 C-12.05 15 -7.1 15 -2 15 C-2 14.34 -2 13.68 -2 13 C-0.35 13 1.3 13 3 13 C2.34 9.7 1.68 6.4 1 3 C0.01 3.33 -0.98 3.66 -2 4 C-2.99 3.34 -3.98 2.68 -5 2 C-3.35 1.34 -1.7 0.68 0 0 Z " fill="#2A74D8" transform="translate(586,130)"/>
<path d="M0 0 C2.33944736 0.28730055 4.6739143 0.61936779 7 1 C5.90073597 2.77388086 4.79539498 4.54399684 3.6875 6.3125 C2.76517578 7.79169922 2.76517578 7.79169922 1.82421875 9.30078125 C0.33675339 11.50172035 -1.0403386 13.23328988 -3 15 C-3.33 13.68 -3.66 12.36 -4 11 C-3.01 11 -2.02 11 -1 11 C-1.01160156 10.28972656 -1.02320313 9.57945313 -1.03515625 8.84765625 C-1.04869141 7.46900391 -1.04869141 7.46900391 -1.0625 6.0625 C-1.07410156 5.14597656 -1.08570313 4.22945312 -1.09765625 3.28515625 C-1 1 -1 1 0 0 Z " fill="#1A78F8" transform="translate(132,41)"/>
<path d="M0 0 C0.66 0.33 1.32 0.66 2 1 C2 1.66 2 2.32 2 3 C4.97 3.495 4.97 3.495 8 4 C7.01 4.66 6.02 5.32 5 6 C-0.4290338 11.04124568 -1.15332694 14.50349422 -1.5625 21.6875 C-1.60568359 22.38939453 -1.64886719 23.09128906 -1.69335938 23.81445312 C-1.7991736 25.54275206 -1.90006581 27.2713511 -2 29 C-2.33 29 -2.66 29 -3 29 C-3 22.4 -3 15.8 -3 9 C-2.01 9 -1.02 9 0 9 C0.33 7.68 0.66 6.36 1 5 C0.01 5.33 -0.98 5.66 -2 6 C-1.34 4.02 -0.68 2.04 0 0 Z " fill="#2873DE" transform="translate(789,93)"/>
<path d="M0 0 C1 3 1 3 0.21484375 4.8671875 C-3.19142265 10.22137994 -6.48348875 15.00620334 -12.875 16.8125 C-13.57625 16.874375 -14.2775 16.93625 -15 17 C-13.68 16.34 -12.36 15.68 -11 15 C-11 14.01 -11 13.02 -11 12 C-9.68 12 -8.36 12 -7 12 C-7 11.34 -7 10.68 -7 10 C-7.99 9.67 -8.98 9.34 -10 9 C-6.25 7.875 -6.25 7.875 -4 9 C-4.33 7.68 -4.66 6.36 -5 5 C-3.68 4.67 -2.36 4.34 -1 4 C-0.67 2.68 -0.34 1.36 0 0 Z " fill="#2776DC" transform="translate(826,128)"/>
<path d="M0 0 C2.2477975 2.05233685 3.0022242 3.00667261 4 6 C4.66 6.33 5.32 6.66 6 7 C6.33 6.01 6.66 5.02 7 4 C8.32 4.33 9.64 4.66 11 5 C10.979375 5.763125 10.95875 6.52625 10.9375 7.3125 C10.87057159 10.10185786 10.87057159 10.10185786 12 13 C9.20394902 12.91776321 7.47169095 12.41865393 5.3671875 10.55078125 C2.38533578 7.23041013 0.27999125 4.61985569 0 0 Z " fill="#1F75E4" transform="translate(557,132)"/>
<path d="M0 0 C0.33 0 0.66 0 1 0 C1.44041451 5.37305699 1.44041451 5.37305699 1 8 C-1.5 10 -1.5 10 -4 11 C-3.01 11.66 -2.02 12.32 -1 13 C-5.0527516 13.98248524 -8.83861737 14.08159574 -13 14 C-13 13.01 -13 12.02 -13 11 C-12.39671875 10.87625 -11.7934375 10.7525 -11.171875 10.625 C-6.18775833 9.39112026 -6.18775833 9.39112026 -2.51171875 6.01953125 C-1.54708737 4.03765223 -0.70861752 2.08620961 0 0 Z " fill="#1675EE" transform="translate(811,122)"/>
<path d="M0 0 C1.51400391 0.01740234 1.51400391 0.01740234 3.05859375 0.03515625 C4.07050781 0.04417969 5.08242188 0.05320312 6.125 0.0625 C7.29869141 0.07990234 7.29869141 0.07990234 8.49609375 0.09765625 C9.15609375 1.41765625 9.81609375 2.73765625 10.49609375 4.09765625 C9.95082031 3.91847656 9.40554688 3.73929687 8.84375 3.5546875 C2.60889365 1.79613827 -1.69730086 2.1886941 -7.50390625 5.09765625 C-9.18867969 6.40803559 -10.86039168 7.73588703 -12.50390625 9.09765625 C-13.82390625 9.09765625 -15.14390625 9.09765625 -16.50390625 9.09765625 C-16.83390625 8.10765625 -17.16390625 7.11765625 -17.50390625 6.09765625 C-16.84390625 6.09765625 -16.18390625 6.09765625 -15.50390625 6.09765625 C-15.50390625 6.75765625 -15.50390625 7.41765625 -15.50390625 8.09765625 C-14.88515625 7.43765625 -14.26640625 6.77765625 -13.62890625 6.09765625 C-11.50390625 4.09765625 -11.50390625 4.09765625 -9.50390625 4.09765625 C-9.17390625 3.10765625 -8.84390625 2.11765625 -8.50390625 1.09765625 C-7.29734375 1.12859375 -7.29734375 1.12859375 -6.06640625 1.16015625 C-3.05975097 1.08682319 -2.98370507 0.11636915 0 0 Z " fill="#2776DB" transform="translate(892.50390625,94.90234375)"/>
<path d="M0 0 C11.88 0 23.76 0 36 0 C36 1.65 36 3.3 36 5 C34 6.8125 34 6.8125 32 8 C32 6.68 32 5.36 32 4 C32.66 4 33.32 4 34 4 C34 3.34 34 2.68 34 2 C22.78 2 11.56 2 0 2 C0 1.34 0 0.68 0 0 Z " fill="#5D55BC" transform="translate(175,53)"/>
<path d="M0 0 C0.33 0 0.66 0 1 0 C1 1.65 1 3.3 1 5 C-0.32 5.33 -1.64 5.66 -3 6 C-3.144375 6.94875 -3.28875 7.8975 -3.4375 8.875 C-4 12 -4 12 -5 14 C-1.37 14.33 2.26 14.66 6 15 C6 15.33 6 15.66 6 16 C3.73044814 16.22185844 1.45926245 16.42705515 -0.8125 16.625 C-2.70935547 16.79902344 -2.70935547 16.79902344 -4.64453125 16.9765625 C-8 17 -8 17 -11 15 C-10.21625 14.278125 -9.4325 13.55625 -8.625 12.8125 C-6.10172843 10.10899475 -5.24568309 8.38113981 -4 5 C-2.4375 3.3125 -2.4375 3.3125 -1 2 C-0.67 1.34 -0.34 0.68 0 0 Z " fill="#524AC0" transform="translate(57,138)"/>
<path d="M0 0 C0.99 0.33 1.98 0.66 3 1 C3 4.96 3 8.92 3 13 C1.68 13 0.36 13 -1 13 C-1.02686553 11.02090602 -1.04633375 9.04171029 -1.0625 7.0625 C-1.07410156 5.96035156 -1.08570313 4.85820313 -1.09765625 3.72265625 C-1 1 -1 1 0 0 Z " fill="#5146E2" transform="translate(182,55)"/>
<path d="M0 0 C0.33 0 0.66 0 1 0 C1 4.29 1 8.58 1 13 C-1.84673755 14.42336877 -4.14615347 14.00758837 -7.3203125 13.87890625 C-8.57714844 13.83056641 -9.83398438 13.78222656 -11.12890625 13.73242188 C-12.44761719 13.67634766 -13.76632812 13.62027344 -15.125 13.5625 C-16.46482438 13.50927587 -17.80466808 13.45653549 -19.14453125 13.40429688 C-22.42990887 13.27429992 -25.71500678 13.13932314 -29 13 C-29 12.67 -29 12.34 -29 12 C-19.76 12 -10.52 12 -1 12 C-0.67 8.04 -0.34 4.08 0 0 Z " fill="#2872DA" transform="translate(536,97)"/>
<path d="M0 0 C0.99 0.33 1.98 0.66 3 1 C2.51789063 1.68707031 2.03578125 2.37414062 1.5390625 3.08203125 C0.90742188 3.98308594 0.27578125 4.88414062 -0.375 5.8125 C-1.00148437 6.70582031 -1.62796875 7.59914062 -2.2734375 8.51953125 C-3.53550239 10.33267878 -4.77458808 12.16188211 -6 14 C-6.33 10.7 -6.66 7.4 -7 4 C-3.535 3.505 -3.535 3.505 0 3 C0 2.01 0 1.02 0 0 Z " fill="#5249D4" transform="translate(151,140)"/>
<path d="M0 0 C0.33 1.32 0.66 2.64 1 4 C0.34 4 -0.32 4 -1 4 C-0.814375 4.5775 -0.62875 5.155 -0.4375 5.75 C0.04023546 8.20692525 -0.24270636 9.64397534 -1 12 C0.32 12.66 1.64 13.32 3 14 C3 14.99 3 15.98 3 17 C0.53199953 15.84826645 -1.04783565 14.95216435 -3 13 C-3.30078125 10.72265625 -3.30078125 10.72265625 -3.3125 8.0625 C-3.32925781 7.18722656 -3.34601562 6.31195313 -3.36328125 5.41015625 C-2.93939398 2.59791488 -2.18325915 1.74545521 0 0 Z " fill="#1B6CE7" transform="translate(671,61)"/>
<path d="M0 0 C1.98 0.66 3.96 1.32 6 2 C4.4422692 5.82352106 2.08404742 8.29205593 -1 11 C-1.99 11 -2.98 11 -4 11 C-4 10.34 -4 9.68 -4 9 C-3.34 8.67 -2.68 8.34 -2 8 C-0.6250851 5.09740189 0 3.23861295 0 0 Z " fill="#2574EC" transform="translate(900,134)"/>
<path d="M0 0 C0.66 0.33 1.32 0.66 2 1 C1.175 1.763125 0.35 2.52625 -0.5 3.3125 C-3.34055197 5.75434142 -3.34055197 5.75434142 -3 9 C-3.99 9 -4.98 9 -6 9 C-6 12.3 -6 15.6 -6 19 C-6.66 19 -7.32 19 -8 19 C-8.34573147 13.23780888 -8.34446833 8.95903925 -5 4 C-2.3125 1.625 -2.3125 1.625 0 0 Z " fill="#2872D4" transform="translate(877,113)"/>
<path d="M0 0 C0.99 0.33 1.98 0.66 3 1 C2.67 1.99 2.34 2.98 2 4 C2.66 4 3.32 4 4 4 C4 4.66 4 5.32 4 6 C3.01 6 2.02 6 1 6 C0.67 5.34 0.34 4.68 0 4 C-2.35953094 6.35953094 -2.49141413 7.77895617 -3 11 C-4.5625 9.75 -4.5625 9.75 -6 8 C-6 6.0625 -6 6.0625 -5 4 C-2.625 1.6875 -2.625 1.6875 0 0 Z " fill="#226DE0" transform="translate(877,88)"/>
<path d="M0 0 C0.66 0.33 1.32 0.66 2 1 C-1.55876253 6.40931904 -5.27438657 11.70460564 -9 17 C-10.33332095 14.3333581 -9.67102033 12.83319697 -9 10 C-8.01 10 -7.02 10 -6 10 C-5.67 8.35 -5.34 6.7 -5 5 C-4.01 5 -3.02 5 -2 5 C-2 4.01 -2 3.02 -2 2 C-1.34 2 -0.68 2 0 2 C0 1.34 0 0.68 0 0 Z " fill="#3177DF" transform="translate(115,74)"/>
<path d="M0 0 C0.33 1.32 0.66 2.64 1 4 C2.32 3.67 3.64 3.34 5 3 C5 3.99 5 4.98 5 6 C4.34 6 3.68 6 3 6 C2.67 6.99 2.34 7.98 2 9 C1.67 8.01 1.34 7.02 1 6 C-2.057952 7.73559438 -4.63379989 9.38472619 -7 12 C-5.44298069 7.32894208 -2.91552627 3.91294315 0 0 Z " fill="#534CD1" transform="translate(139,55)"/>
<path d="M0 0 C0.33 0 0.66 0 1 0 C1.16435547 1.62808594 1.16435547 1.62808594 1.33203125 3.2890625 C1.49158608 4.73444152 1.65177611 6.17975051 1.8125 7.625 C1.88275391 8.33785156 1.95300781 9.05070312 2.02539062 9.78515625 C2.55681062 14.41913863 3.63468394 17.89147841 6 22 C5.01 22 4.02 22 3 22 C0.89343762 19.89343762 -0.00546833 18.79198799 -1 16 C-0.98310491 13.19541585 -0.87078478 10.5322837 -0.625 7.75 C-0.56828125 7.00492187 -0.5115625 6.25984375 -0.453125 5.4921875 C-0.31223742 3.66064892 -0.15748116 1.83018648 0 0 Z " fill="#2B72D9" transform="translate(714,109)"/>
<path d="M0 0 C1.08209949 3.24629847 0.78140875 3.87436498 0 7 C0.33 7.99 0.66 8.98 1 10 C-0.1446875 10.2165625 -0.1446875 10.2165625 -1.3125 10.4375 C-4.08172908 10.9632594 -4.08172908 10.9632594 -7 12 C-5.44298069 7.32894208 -2.91552627 3.91294315 0 0 Z " fill="#2A7BE6" transform="translate(23,75)"/>
<path d="M0 0 C1 2 1 2 0.328125 4.05859375 C-0.02765625 4.84363281 -0.3834375 5.62867188 -0.75 6.4375 C-1.26820312 7.61119141 -1.26820312 7.61119141 -1.796875 8.80859375 C-2.97746344 10.95895127 -4.18105555 12.37444907 -6 14 C-6.99 13.67 -7.98 13.34 -9 13 C-7.68889201 11.01989841 -6.37618664 9.04088963 -5.0625 7.0625 C-4.50272461 6.21655273 -4.50272461 6.21655273 -3.93164062 5.35351562 C-1.11328125 1.11328125 -1.11328125 1.11328125 0 0 Z " fill="#317DE6" transform="translate(55,28)"/>
<path d="M0 0 C5.29244414 3.12735336 8.90546572 6.20022474 10.6875 12.38671875 C11.18448339 14.58518 11.62470035 16.777831 12 19 C10 17 10 17 9 13.9375 C8.34247444 10.87849194 8.34247444 10.87849194 6 10 C5.375 7.4375 5.375 7.4375 5 5 C3.35 4.67 1.7 4.34 0 4 C0 2.68 0 1.36 0 0 Z " fill="#2B72D9" transform="translate(816,86)"/>
<path d="M0 0 C2.97 0 5.94 0 9 0 C9 1.32 9 2.64 9 4 C6.03 4 3.06 4 0 4 C0 2.68 0 1.36 0 0 Z " fill="#5146E2" transform="translate(75,139)"/>
<path d="M0 0 C2.97 0 5.94 0 9 0 C9 1.32 9 2.64 9 4 C6.03 4 3.06 4 0 4 C0 2.68 0 1.36 0 0 Z " fill="#5146E2" transform="translate(65,134)"/>
<path d="M0 0 C2.97 0 5.94 0 9 0 C9 1.32 9 2.64 9 4 C6.03 4 3.06 4 0 4 C0 2.68 0 1.36 0 0 Z " fill="#5044E2" transform="translate(100,134)"/>
<path d="M0 0 C2.97 0 5.94 0 9 0 C9 1.32 9 2.64 9 4 C6.03 4 3.06 4 0 4 C0 2.68 0 1.36 0 0 Z " fill="#5146E2" transform="translate(75,134)"/>
<path d="M0 0 C2.97 0 5.94 0 9 0 C9 1.32 9 2.64 9 4 C6.03 4 3.06 4 0 4 C0 2.68 0 1.36 0 0 Z " fill="#5044E1" transform="translate(85,149)"/>
<path d="M0 0 C1.32 0.33 2.64 0.66 4 1 C4 1.66 4 2.32 4 3 C3.34 3 2.68 3 2 3 C2.33 3.99 2.66 4.98 3 6 C2.01 6.495 2.01 6.495 1 7 C0.01 6.67 -0.98 6.34 -2 6 C-2.33 6.66 -2.66 7.32 -3 8 C-4.32 7.67 -5.64 7.34 -7 7 C-6.01 7 -5.02 7 -4 7 C-3.71125 6.401875 -3.4225 5.80375 -3.125 5.1875 C-2 3 -2 3 0 0 Z " fill="#584ED8" transform="translate(103,108)"/>
<path d="M0 0 C-1.31224548 3.93673644 -2.91910327 6.22719294 -6 9 C-5.67 7.35 -5.34 5.7 -5 4 C-4.34 4 -3.68 4 -3 4 C-3 3.34 -3 2.68 -3 2 C-6.3 1.67 -9.6 1.34 -13 1 C-13 0.67 -13 0.34 -13 0 C-11.58456585 -0.19658808 -10.16755969 -0.38187546 -8.75 -0.5625 C-7.96109375 -0.66691406 -7.1721875 -0.77132813 -6.359375 -0.87890625 C-3.99467126 -1.00027349 -2.2488963 -0.69633257 0 0 Z " fill="#437BD6" transform="translate(162,7)"/>
<path d="M0 0 C4.52920554 2.01298024 6.28116397 4.51336764 8.28515625 8.859375 C9.35307283 12.05728912 9.27872824 14.65526112 9 18 C8.67 18 8.34 18 8 18 C7.62875 16.2365625 7.62875 16.2365625 7.25 14.4375 C6.16258978 10.0723247 4.45781051 6.76352234 2 3 C1.34 2.67 0.68 2.34 0 2 C0 1.34 0 0.68 0 0 Z " fill="#2E74D6" transform="translate(645,86)"/>
<path d="M0 0 C0 1.32 0 2.64 0 4 C-2.875 3.75 -2.875 3.75 -6 3 C-7.375 0.9375 -7.375 0.9375 -8 -1 C-4.59745511 -2.2151946 -3.06748874 -1.86240388 0 0 Z " fill="#453EE5" transform="translate(88,115)"/>
<path d="M0 0 C-0.598125 0.433125 -1.19625 0.86625 -1.8125 1.3125 C-5.61945619 4.24929478 -7.38365115 6.3996225 -9 11 C-9.33 11 -9.66 11 -10 11 C-10 7.66666667 -10 4.33333333 -10 1 C-6.59437148 0.22157062 -3.49234244 -0.09978121 0 0 Z " fill="#2572DF" transform="translate(725,97)"/>
<path d="M0 0 C-0.99 0.33 -1.98 0.66 -3 1 C-3 1.99 -3 2.98 -3 4 C-3 4.99 -3 5.98 -3 7 C-4.32 7 -5.64 7 -7 7 C-7 4.33333333 -7 1.66666667 -7 -1 C-3.51418144 -2.2020064 -3.32007656 -2.21338437 0 0 Z " fill="#3F39E5" transform="translate(97,115)"/>
<path d="M0 0 C0.66 0 1.32 0 2 0 C1.67 2.31 1.34 4.62 1 7 C0.34 7 -0.32 7 -1 7 C-1 7.99 -1 8.98 -1 10 C-3.64 9.67 -6.28 9.34 -9 9 C-6.94909081 7.9745454 -4.96468629 6.98688348 -2.8125 6.1875 C-0.71861846 5.09789337 -0.71861846 5.09789337 -0.25 2.375 C-0.1675 1.59125 -0.085 0.8075 0 0 Z " fill="#2372D5" transform="translate(903,100)"/>
<path d="M0 0 C0.99 0.33 1.98 0.66 3 1 C0.36 4.63 -2.28 8.26 -5 12 C-5.33 11.01 -5.66 10.02 -6 9 C-5.34 9 -4.68 9 -4 9 C-3.67 7.02 -3.34 5.04 -3 3 C-2.01 3 -1.02 3 0 3 C0 2.01 0 1.02 0 0 Z " fill="#5951C2" transform="translate(179,99)"/>
<path d="M0 0 C0.99 0 1.98 0 3 0 C1.68775452 3.93673644 0.08089673 6.22719294 -3 9 C-3.33 7.35 -3.66 5.7 -4 4 C-3.01 3.67 -2.02 3.34 -1 3 C-0.67 2.01 -0.34 1.02 0 0 Z " fill="#5A52CB" transform="translate(204,61)"/>
<path d="M0 0 C1.98 0 3.96 0 6 0 C6.33 0.99 6.66 1.98 7 3 C6 4 6 4 2.9375 4.0625 C1.4834375 4.0315625 1.4834375 4.0315625 0 4 C0 2.68 0 1.36 0 0 Z " fill="#5146E3" transform="translate(186,69)"/>
<path d="M0 0 C0.33 0.66 0.66 1.32 1 2 C0.06553465 4.03144641 -0.93224776 6.03533587 -2 8 C-2.66 8 -3.32 8 -4 8 C-4 8.99 -4 9.98 -4 11 C-4.99 11.33 -5.98 11.66 -7 12 C-5.44298069 7.32894208 -2.91552627 3.91294315 0 0 Z " fill="#5A54C2" transform="translate(115,90)"/>
<path d="M0 0 C0 0.33 0 0.66 0 1 C-2.97851562 1.29296875 -2.97851562 1.29296875 -5.95703125 1.5859375 C-8.29988142 1.92665391 -8.29988142 1.92665391 -11 4 C-11.99 3.34 -12.98 2.68 -14 2 C-4.58997722 -1.62870159 -4.58997722 -1.62870159 0 0 Z " fill="#2175DD" transform="translate(893,110)"/>
<path d="M0 0 C1.32 0.33 2.64 0.66 4 1 C2.02 3.97 0.04 6.94 -2 10 C-3.19156292 5.23374833 -2.3415946 4.12120649 0 0 Z " fill="#2C7AE0" transform="translate(120,64)"/>
<path d="M0 0 C0.33 0 0.66 0 1 0 C1 2.64 1 5.28 1 8 C-0.8125 9.0625 -0.8125 9.0625 -3 10 C-3.99 9.67 -4.98 9.34 -6 9 C-5.38125 8.443125 -4.7625 7.88625 -4.125 7.3125 C-1.93893621 4.93354822 -1.01214301 3.03642904 0 0 Z " fill="#2B70CF" transform="translate(811,122)"/>
<path d="M0 0 C3.34373475 0.55728913 6.03312999 1.35173889 9 3 C9 3.66 9 4.32 9 5 C4.68607774 4.5206753 2.83430453 3.2542015 0 0 Z " fill="#206BE0" transform="translate(707,139)"/>
<path d="M0 0 C0.99 0 1.98 0 3 0 C3 1.32 3 2.64 3 4 C2.34 4 1.68 4 1 4 C1.33 5.32 1.66 6.64 2 8 C1.01 7.67 0.02 7.34 -1 7 C-1.04254356 5.00045254 -1.04080783 2.99958364 -1 1 C-0.67 0.67 -0.34 0.34 0 0 Z " fill="#4C42E2" transform="translate(172,104)"/>
<path d="M0 0 C2.97 0.495 2.97 0.495 6 1 C5.21625 1.598125 4.4325 2.19625 3.625 2.8125 C0.85425677 4.91085249 0.85425677 4.91085249 -1 8 C-0.67 5.36 -0.34 2.72 0 0 Z " fill="#2779E0" transform="translate(886,118)"/>
<path d="M0 0 C0.25 2.3125 0.25 2.3125 0 5 C-2 6.8125 -2 6.8125 -4 8 C-4 6.68 -4 5.36 -4 4 C-3.34 4 -2.68 4 -2 4 C-2 3.34 -2 2.68 -2 2 C-2.99 1.67 -3.98 1.34 -5 1 C-1.125 0 -1.125 0 0 0 Z " fill="#5B57CB" transform="translate(211,53)"/>
<path d="M0 0 C0.66 0.33 1.32 0.66 2 1 C-0.97 4.96 -0.97 4.96 -4 9 C-4.33 7.68 -4.66 6.36 -5 5 C-4.34 5 -3.68 5 -3 5 C-3 4.01 -3 3.02 -3 2 C-2.01 1.34 -1.02 0.68 0 0 Z " fill="#387DD4" transform="translate(144,32)"/>
<path d="M0 0 C-1.97420135 2.52259061 -2.96745642 2.9929808 -6.1875 3.6875 C-7.5796875 3.8421875 -7.5796875 3.8421875 -9 4 C-9 3.34 -9 2.68 -9 2 C-5.5647952 -0.29013653 -4.014669 -0.17842973 0 0 Z " fill="#2871DD" transform="translate(746,141)"/>
<path d="M0 0 C0 0.66 0 1.32 0 2 C-1.65 2.66 -3.3 3.32 -5 4 C-5 3.34 -5 2.68 -5 2 C-5.99 1.67 -6.98 1.34 -8 1 C-4.93251126 -0.86240388 -3.40254489 -1.2151946 0 0 Z " fill="#186FEB" transform="translate(739,131)"/>
<path d="M0 0 C0 3.99904969 -1.72586967 5.80200422 -4 9 C-5.37245106 6.25509788 -4.93580311 4.87939419 -4 2 C-1.9375 0.6875 -1.9375 0.6875 0 0 Z " fill="#3075DE" transform="translate(104,91)"/>
<path d="M0 0 C0.99 0.99 1.98 1.98 3 3 C2.67 3.99 2.34 4.98 2 6 C-0.475 5.01 -0.475 5.01 -3 4 C-2.67 3.01 -2.34 2.02 -2 1 C-1.34 0.67 -0.68 0.34 0 0 Z " fill="#2177EB" transform="translate(27,71)"/>
<path d="M0 0 C0.33 1.32 0.66 2.64 1 4 C0.01 4 -0.98 4 -2 4 C-2 6.64 -2 9.28 -2 12 C-2.33 12 -2.66 12 -3 12 C-3.08131463 10.56344146 -3.13933559 9.1255517 -3.1875 7.6875 C-3.22230469 6.88699219 -3.25710938 6.08648437 -3.29296875 5.26171875 C-2.93801608 2.52148416 -2.10633718 1.70828921 0 0 Z " fill="#2970DB" transform="translate(671,61)"/>
<path d="M0 0 C0.33 0.66 0.66 1.32 1 2 C1.99 2.33 2.98 2.66 4 3 C3.34 3.66 2.68 4.32 2 5 C1.01 5 0.02 5 -1 5 C-0.67 4.34 -0.34 3.68 0 3 C-1.32 2.67 -2.64 2.34 -4 2 C-2.68 1.34 -1.36 0.68 0 0 Z " fill="#5956DA" transform="translate(89,113)"/>
<path d="M0 0 C0 0.66 0 1.32 0 2 C-0.66 2 -1.32 2 -2 2 C-2.33 2.99 -2.66 3.98 -3 5 C-4.32 4.67 -5.64 4.34 -7 4 C-2.25 0 -2.25 0 0 0 Z " fill="#2B71D8" transform="translate(796,85)"/>
<path d="M0 0 C0.99 0.33 1.98 0.66 3 1 C1.02 3.97 1.02 3.97 -1 7 C-1.66 5.68 -2.32 4.36 -3 3 C-2.01 3 -1.02 3 0 3 C0 2.01 0 1.02 0 0 Z " fill="#2E7AD9" transform="translate(131,49)"/>
<path d="M0 0 C1.65 0 3.3 0 5 0 C3.68 2.31 2.36 4.62 1 7 C0.34 5.68 -0.32 4.36 -1 3 C-0.34 2.67 0.32 2.34 1 2 C0.67 1.34 0.34 0.68 0 0 Z " fill="#2E7BE0" transform="translate(134,42)"/>
<path d="M0 0 C0.6875 1.8125 0.6875 1.8125 1 4 C-0.3125 5.75 -0.3125 5.75 -2 7 C-2.66 7 -3.32 7 -4 7 C-2.92598892 4.08482708 -2.22189824 2.22189824 0 0 Z " fill="#2F78E8" transform="translate(68,9)"/>
</svg>
