<?xml version="1.0" encoding="UTF-8"?>
<svg version="1.1" xmlns="http://www.w3.org/2000/svg" width="408" height="76">
<path d="M0 0 C134.64 0 269.28 0 408 0 C408 25.08 408 50.16 408 76 C273.36 76 138.72 76 0 76 C0 50.92 0 25.84 0 0 Z " fill="#FCFCFE" transform="translate(0,0)"/>
<path d="M0 0 C1.82846262 0.08039336 3.657267 0.15337385 5.48632812 0.21875 C9.93692726 0.39383562 14.37089826 0.6688461 18.8125 1 C17.52319253 4.48431413 16.01426343 7.44011231 13.94140625 10.51953125 C13.37188232 11.36999023 12.8023584 12.22044922 12.21557617 13.09667969 C11.60818604 13.99290039 11.0007959 14.88912109 10.375 15.8125 C9.75407471 16.73579102 9.13314941 17.65908203 8.4934082 18.61035156 C-7.42739207 42.23989207 -7.42739207 42.23989207 -9.1875 44 C-11.9991338 44.08861992 -14.78608255 44.11522355 -17.59765625 44.09765625 C-18.43969101 44.0962413 -19.28172577 44.09482635 -20.14927673 44.09336853 C-22.84955335 44.08775263 -25.54974828 44.07519748 -28.25 44.0625 C-30.07617068 44.05748705 -31.90234266 44.05292379 -33.72851562 44.04882812 C-38.21487542 44.03777804 -42.70117384 44.02050279 -47.1875 44 C-46.62504178 40.03953952 -45.47468774 37.53205454 -43.1953125 34.26171875 C-42.57140625 33.35744141 -41.9475 32.45316406 -41.3046875 31.52148438 C-40.64726563 30.58626953 -39.98984375 29.65105469 -39.3125 28.6875 C-38.69375 27.79482422 -38.075 26.90214844 -37.4375 25.98242188 C-36.11402682 24.07356633 -34.76911795 22.17944779 -33.40649414 20.29833984 C-31.71651546 17.78633501 -30.32219182 15.40649367 -28.93530273 12.73681641 C-21.64821824 -0.57062025 -14.43521516 -1.10889233 0 0 Z " fill="#177AFA" transform="translate(47.1875,0)"/>
<path d="M0 0 C1.2463623 0.01047363 2.49272461 0.02094727 3.77685547 0.03173828 C4.77143265 0.03598312 4.77143265 0.03598312 5.78610229 0.04031372 C7.9055988 0.05151643 10.02467401 0.07662027 12.14404297 0.10205078 C13.58023479 0.11208051 15.01643322 0.12120637 16.45263672 0.12939453 C19.97490925 0.15145578 23.496935 0.18598585 27.01904297 0.22705078 C25.49513667 3.46441099 23.66714672 6.37004741 21.67529297 9.34033203 C21.00498047 10.34257813 20.33466797 11.34482422 19.64404297 12.37744141 C18.59216797 13.94268555 18.59216797 13.94268555 17.51904297 15.53955078 C16.15442722 17.57728949 14.78984438 19.61505024 13.42529297 21.65283203 C12.70067871 22.69383057 11.97606445 23.7348291 11.22949219 24.80737305 C9.58834776 27.23382424 8.26900524 29.693296 7 32.33227539 C1.96012116 42.20365888 1.96012116 42.20365888 -3.17028809 43.98886108 C-9.47260659 45.08738781 -15.75989395 44.59620035 -22.10595703 44.16455078 C-24.03538448 44.08920784 -25.96509525 44.02078421 -27.89501953 43.95947266 C-32.59739143 43.79510544 -37.28602916 43.53705719 -41.98095703 43.22705078 C-40.53983205 36.66004554 -36.58841093 31.01717906 -31.98095703 26.22705078 C-29.28955078 25.64892578 -29.28955078 25.64892578 -26.54345703 25.78955078 C-23.73201854 26.01153849 -23.73201854 26.01153849 -20.98095703 25.22705078 C-17.39719608 21.50386397 -14.73398602 17.407888 -12.06054688 13.00244141 C-10.60648099 10.61122316 -9.04623203 8.29653819 -7.48095703 5.97705078 C-6.81580078 4.94837891 -6.81580078 4.94837891 -6.13720703 3.89892578 C-4.18062016 1.06980692 -3.53514154 0.26926139 0 0 Z " fill="#564BE5" transform="translate(60.98095703125,21.77294921875)"/>
<path d="M0 0 C1.98 0 3.96 0 6 0 C6.33 0.99 6.66 1.98 7 3 C7.7115625 2.2265625 7.7115625 2.2265625 8.4375 1.4375 C11.79453416 -0.44571429 14.03108951 -0.12073237 17.78125 0.1875 C21.06878443 1.39138585 22.19739626 3.03195447 24 6 C24.49609375 9.375 24.49609375 9.375 24.4375 13 C24.43621094 14.19625 24.43492187 15.3925 24.43359375 16.625 C23.9696416 20.23630324 23.18599905 22.11962478 21 25 C17.86588698 27.08940868 17.02549528 27.27364412 13.4375 27.25 C12.25994141 27.25773437 12.25994141 27.25773437 11.05859375 27.265625 C9 27 9 27 7 25 C6.67 29.29 6.34 33.58 6 38 C4.02 38 2.04 38 0 38 C0 25.46 0 12.92 0 0 Z " fill="#5348E5" transform="translate(334,34)"/>
<path d="M0 0 C9 0 9 0 11.21508789 2.01953125 C11.71258545 2.94121094 12.21008301 3.86289062 12.72265625 4.8125 C13.28017578 5.80507813 13.83769531 6.79765625 14.41210938 7.8203125 C14.95673828 8.86960937 15.50136719 9.91890625 16.0625 11 C16.64193359 12.04929687 17.22136719 13.09859375 17.81835938 14.1796875 C19.24292915 16.76981436 20.62560064 19.38290569 22 22 C22.33 14.74 22.66 7.48 23 0 C24.98 0 26.96 0 29 0 C29 11.55 29 23.1 29 35 C22 35 22 35 20.02783203 33.10400391 C19.52622559 32.23694824 19.02461914 31.36989258 18.5078125 30.4765625 C17.94835937 29.538125 17.38890625 28.5996875 16.8125 27.6328125 C16.255625 26.64023437 15.69875 25.64765625 15.125 24.625 C14.54492188 23.64015625 13.96484375 22.6553125 13.3671875 21.640625 C11.50465879 18.46388211 9.64721333 15.29442666 8 12 C7.67 19.59 7.34 27.18 7 35 C4.69 35 2.38 35 0 35 C0 23.45 0 11.9 0 0 Z " fill="#1E7DFA" transform="translate(130,26)"/>
<path d="M0 0 C22.11 0 44.22 0 67 0 C66.67 0.99 66.34 1.98 66 3 C66 2.34 66 1.68 66 1 C60.62715132 0.77034848 55.26433957 0.64210773 49.88671875 0.60327148 C48.06287473 0.57634592 46.23920667 0.5228102 44.41699219 0.44116211 C34.33493449 -0.27177063 34.33493449 -0.27177063 25.2862854 3.33370972 C22.17028956 6.81730239 20.08156862 10.81407292 18.0300293 14.98684692 C16.44818186 18.07850756 14.51938401 20.84792415 12.55859375 23.71484375 C10.46545049 26.87523408 8.3727263 30.03580776 6.28710938 33.20117188 C5.61357422 34.21630859 4.94003906 35.23144531 4.24609375 36.27734375 C3.64466553 37.18734131 3.0432373 38.09733887 2.42358398 39.03491211 C1.95380127 39.68339111 1.48401855 40.33187012 1 41 C0.67 41 0.34 41 0 41 C0 27.47 0 13.94 0 0 Z " fill="#F8F9FC" transform="translate(0,0)"/>
<path d="M0 0 C3.19531348 2.15497886 4.32828916 3.18793775 5.6875 6.8125 C6.22301981 11.75118269 6.36480588 16.1869659 4.4375 20.8125 C1.89126902 23.72247826 -0.03217258 25.60070217 -3.93359375 26.24609375 C-11.50654591 26.25659715 -11.50654591 26.25659715 -15.375 24.125 C-19.3328411 19.40112514 -19.70556311 15.20118598 -19.5625 9.18359375 C-19.10383954 4.83348591 -17.41067388 2.7224155 -14.125 0 C-9.10335316 -2.12025089 -4.98558636 -1.78728568 0 0 Z " fill="#574BE6" transform="translate(321.3125,35.1875)"/>
<path d="M0 0 C7.59 0 15.18 0 23 0 C23 1.98 23 3.96 23 6 C17.72 6 12.44 6 7 6 C7 8.64 7 11.28 7 14 C11.62 14 16.24 14 21 14 C21 15.98 21 17.96 21 20 C16.38 20 11.76 20 7 20 C7 22.97 7 25.94 7 29 C12.28 29 17.56 29 23 29 C23 30.98 23 32.96 23 35 C15.41 35 7.82 35 0 35 C0 23.45 0 11.9 0 0 Z " fill="#594EE6" transform="translate(210,26)"/>
<path d="M0 0 C2.31 0 4.62 0 7 0 C7.33 3.96 7.66 7.92 8 12 C8.99 11.34 9.98 10.68 11 10 C14.80393701 9.57734033 17.23351172 9.63500558 20.70703125 11.2890625 C24.38980718 15.64314512 23.5291495 20.25043575 23.3125 25.75 C23.28994141 26.82894531 23.26738281 27.90789063 23.24414062 29.01953125 C23.1852565 31.6810935 23.10307001 34.33984228 23 37 C21.02 37 19.04 37 17 37 C16.97494385 36.42967041 16.9498877 35.85934082 16.92407227 35.27172852 C16.80843451 32.70173843 16.68556376 30.13214473 16.5625 27.5625 C16.52318359 26.66466797 16.48386719 25.76683594 16.44335938 24.84179688 C16.40146484 23.98779297 16.35957031 23.13378906 16.31640625 22.25390625 C16.27974854 21.46314697 16.24309082 20.6723877 16.20532227 19.85766602 C16.19436743 17.98598559 16.19436743 17.98598559 15 17 C12 16.83333333 12 16.83333333 9 17 C7.45049732 18.54950268 7.78344807 20.09990594 7.68359375 22.25390625 C7.64169922 23.10791016 7.59980469 23.96191406 7.55664062 24.84179688 C7.51732422 25.73962891 7.47800781 26.63746094 7.4375 27.5625 C7.39431641 28.46419922 7.35113281 29.36589844 7.30664062 30.29492188 C7.20021858 32.52978485 7.09820012 34.76476308 7 37 C4.69 37 2.38 37 0 37 C0 24.79 0 12.58 0 0 Z " fill="#584CE6" transform="translate(259,24)"/>
<path d="M0 0 C2.36293002 1.15632746 4.14983755 2.14983755 6 4 C6.07325168 6.86267567 6.09238205 9.700719 6.0625 12.5625 C6.05798828 13.36880859 6.05347656 14.17511719 6.04882812 15.00585938 C6.03700518 17.00393756 6.01906914 19.00197783 6 21 C6.99 21 7.98 21 9 21 C9 22.98 9 24.96 9 27 C3.58461538 27.36923077 3.58461538 27.36923077 0.625 25.5 C-0.179375 24.7575 -0.179375 24.7575 -1 24 C-1 24.66 -1 25.32 -1 26 C-4.20580406 27.60290203 -7.52182314 27.48117071 -11 27 C-13.5 25.4375 -13.5 25.4375 -15 23 C-15.5625 19.5 -15.5625 19.5 -15 16 C-11.16851512 11.27450199 -5.7127774 10.84305065 0 10 C-0.33 9.01 -0.66 8.02 -1 7 C-6.7974423 6.75571657 -6.7974423 6.75571657 -12 9 C-12.66 8.34 -13.32 7.68 -14 7 C-13.9375 5.0625 -13.9375 5.0625 -13 3 C-9.01908757 -0.37774388 -5.0082344 -0.77905868 0 0 Z " fill="#564AE5" transform="translate(392,34)"/>
<path d="M0 0 C8.91 0 17.82 0 27 0 C27 1.98 27 3.96 27 6 C23.7 6 20.4 6 17 6 C17 15.57 17 25.14 17 35 C14.69 35 12.38 35 10 35 C10 25.43 10 15.86 10 6 C6.7 6 3.4 6 0 6 C0 4.02 0 2.04 0 0 Z " fill="#217FFA" transform="translate(98,26)"/>
<path d="M0 0 C8.58 0 17.16 0 26 0 C26 1.98 26 3.96 26 6 C23.03 6 20.06 6 17 6 C17 15.57 17 25.14 17 35 C14.69 35 12.38 35 10 35 C10 25.43 10 15.86 10 6 C6.7 6 3.4 6 0 6 C0 4.02 0 2.04 0 0 Z " fill="#217FFA" transform="translate(165,26)"/>
<path d="M0 0 C1.2065625 0.0309375 1.2065625 0.0309375 2.4375 0.0625 C2.4375 2.0425 2.4375 4.0225 2.4375 6.0625 C5.0775 6.0625 7.7175 6.0625 10.4375 6.0625 C10.4375 8.0425 10.4375 10.0225 10.4375 12.0625 C8.1275 12.0625 5.8175 12.0625 3.4375 12.0625 C3.7675 17.0125 4.0975 21.9625 4.4375 27.0625 C6.4175 27.0625 8.3975 27.0625 10.4375 27.0625 C10.81968767 28.71864657 11.15145102 30.38707024 11.4375 32.0625 C9.78655878 33.71344122 7.89264063 33.35117693 5.625 33.4375 C4.75230469 33.48648438 3.87960938 33.53546875 2.98046875 33.5859375 C0.4375 33.0625 0.4375 33.0625 -1.87109375 31.05859375 C-4.09670814 27.11622369 -4.0185119 24.18321772 -3.8125 19.75 C-3.79445312 19.00943359 -3.77640625 18.26886719 -3.7578125 17.50585938 C-3.71097337 15.6908429 -3.63923789 13.87649834 -3.5625 12.0625 C-4.8825 12.0625 -6.2025 12.0625 -7.5625 12.0625 C-7.5625 10.0825 -7.5625 8.1025 -7.5625 6.0625 C-6.2425 6.0625 -4.9225 6.0625 -3.5625 6.0625 C-3.583125 5.258125 -3.60375 4.45375 -3.625 3.625 C-3.54067676 0.16774696 -3.45725304 0.08432324 0 0 Z " fill="#5B50E6" transform="translate(243.5625,27.9375)"/>
<path d="M0 0 C3.5625 0.375 3.5625 0.375 5.5 1.9375 C7.24533749 5.94150953 6.99377795 9.55404864 6 13.75 C4.5625 15.375 4.5625 15.375 1.125 16.3125 C-2.4375 16.375 -2.4375 16.375 -4.140625 15.2265625 C-5.92231807 12.68281998 -5.80329759 10.89146095 -5.75 7.8125 C-5.74613281 6.84183594 -5.74226563 5.87117188 -5.73828125 4.87109375 C-5.24633695 0.78859496 -3.98037279 0.43422249 0 0 Z " fill="#F6F5FD" transform="translate(314.4375,39.625)"/>
<path d="M0 0 C1.875 1 1.875 1 3 3 C3.30155019 6.7995324 3.31542253 9.76985212 2.375 13.4375 C1 15 1 15 -1.875 16 C-5 16 -5 16 -7.375 14.625 C-9.67327068 10.9124089 -9.87255939 7.26846619 -9 3 C-6.36532484 -0.44888964 -4.24838797 -0.5310485 0 0 Z " fill="#F6F6FD" transform="translate(349,40)"/>
<path d="M0 0 C1.98 0 3.96 0 6 0 C6 8.91 6 17.82 6 27 C4.02 27 2.04 27 0 27 C0 18.09 0 9.18 0 0 Z " fill="#5145E5" transform="translate(365,34)"/>
<path d="M0 0 C1.98 0 3.96 0 6 0 C6 8.91 6 17.82 6 27 C4.02 27 2.04 27 0 27 C0 18.09 0 9.18 0 0 Z " fill="#5145E5" transform="translate(290,34)"/>
<path d="M0 0 C4.95 0 9.9 0 15 0 C15 1.98 15 3.96 15 6 C10.05 6 5.1 6 0 6 C0 4.02 0 2.04 0 0 Z " fill="#2883FA" transform="translate(190,41)"/>
<path d="M0 0 C0.125 2.875 0.125 2.875 0 6 C-2 8 -2 8 -5.125 8.125 C-6.548125 8.063125 -6.548125 8.063125 -8 8 C-8.33 6.35 -8.66 4.7 -9 3 C-2.25 0 -2.25 0 0 0 Z " fill="#F0EFFC" transform="translate(392,48)"/>
<path d="M0 0 C2.625 0.375 2.625 0.375 5 1 C5.625 3.375 5.625 3.375 6 6 C5.34 6.66 4.68 7.32 4 8 C1.375 7.625 1.375 7.625 -1 7 C-1.625 4.625 -1.625 4.625 -2 2 C-1.34 1.34 -0.68 0.68 0 0 Z " fill="#5B4FE6" transform="translate(366,24)"/>
<path d="M0 0 C2.625 0.375 2.625 0.375 5 1 C5.625 3.375 5.625 3.375 6 6 C5.34 6.66 4.68 7.32 4 8 C1.375 7.625 1.375 7.625 -1 7 C-1.625 4.625 -1.625 4.625 -2 2 C-1.34 1.34 -0.68 0.68 0 0 Z " fill="#5B4FE6" transform="translate(291,24)"/>
</svg>
