<?xml version="1.0" encoding="UTF-8"?>
<svg version="1.1" xmlns="http://www.w3.org/2000/svg" width="406" height="77">
<path d="M0 0 C0.84914474 0.036129 1.69828949 0.072258 2.57316589 0.10948181 C3.89431648 0.12433876 3.89431648 0.12433876 5.24215698 0.13949585 C8.04561914 0.17857342 10.84511371 0.26637414 13.64738464 0.35557556 C15.55162482 0.39069839 17.4559266 0.42263571 19.36027527 0.45127869 C24.01999888 0.52831282 28.67677003 0.6490428 33.33488464 0.79307556 C32.77333993 4.72736831 31.6495889 7.2166164 29.37785339 10.46104431 C28.7682074 11.34646912 28.1585614 12.23189392 27.53044128 13.14414978 C26.16625324 15.07109649 24.79132517 16.99047537 23.40690613 18.90293884 C20.07172002 23.56400597 17.13150608 27.87181096 15.07707214 33.24229431 C12.78359704 38.72282687 10.84293085 43.04522846 5.33488464 45.79307556 C-7.52188648 48.55800527 -21.67727063 46.85869817 -34.66511536 45.79307556 C-34.15927244 41.6790581 -33.4339371 38.89343292 -31.04011536 35.50791931 C-30.50257629 34.73609314 -29.96503723 33.96426697 -29.41120911 33.16905212 C-28.83499817 32.36435486 -28.25878723 31.55965759 -27.66511536 30.73057556 C-27.07859192 29.89365173 -26.49206848 29.05672791 -25.88777161 28.19444275 C-24.70576062 26.5087192 -23.51961292 24.82588807 -22.32917786 23.14610291 C-20.07921772 19.96460118 -17.87260246 16.75409792 -15.66511536 13.54307556 C-14.33665171 11.62303045 -13.00334549 9.70632646 -11.66511536 7.79307556 C-11.34690323 7.20354599 -11.0286911 6.61401642 -10.70083618 6.00662231 C-7.82756733 1.10117856 -5.63714381 -0.00372346 0 0 Z " fill="#1478F8" transform="translate(34.66511535644531,1.2069244384765625)"/>
<path d="M0 0 C0.88558594 0.12568359 1.77117187 0.25136719 2.68359375 0.38085938 C-1.40635683 10.85351326 -8.71641077 19.90278179 -15.16503906 29.03540039 C-15.7422168 29.85322998 -16.31939453 30.67105957 -16.9140625 31.51367188 C-17.80061523 32.71600464 -17.80061523 32.71600464 -18.70507812 33.94262695 C-20.39549182 36.31552784 -20.39549182 36.31552784 -21.33398438 38.98120117 C-22.6693842 42.04954186 -23.54778164 43.44891162 -26.31640625 45.38085938 C-33.26869147 46.9204178 -40.63320988 46.21936853 -47.69140625 45.94335938 C-49.68741042 45.89819432 -51.68351196 45.85713325 -53.6796875 45.8203125 C-58.56100034 45.72133235 -63.43763872 45.56616511 -68.31640625 45.38085938 C-68.31640625 41.59553509 -67.12087008 40.15661272 -65.06640625 37.00585938 C-64.463125 36.07 -63.85984375 35.13414063 -63.23828125 34.16992188 C-57.96433354 26.51626606 -57.96433354 26.51626606 -55.31640625 25.96289062 C-54.65640625 26.03894531 -53.99640625 26.115 -53.31640625 26.19335938 C-49.95227296 26.54159974 -48.18120599 26.25418157 -45.31640625 24.38085938 C-43.8158917 21.90257625 -43.8158917 21.90257625 -42.55078125 18.93554688 C-32.02604738 -1.87754978 -21.3516882 -2.63285645 0 0 Z " fill="#5348E4" transform="translate(87.31640625,22.619140625)"/>
<path d="M0 0 C9 0 9 0 10.98046875 1.6171875 C11.37878906 2.36226562 11.77710938 3.10734375 12.1875 3.875 C12.64769531 4.68582031 13.10789063 5.49664062 13.58203125 6.33203125 C14.28392578 7.65267578 14.28392578 7.65267578 15 9 C16.11808955 10.85834194 17.24292145 12.71264671 18.375 14.5625 C19.24125 16.026875 20.1075 17.49125 21 19 C21.33 12.73 21.66 6.46 22 0 C24.64 0 27.28 0 30 0 C30 11.55 30 23.1 30 35 C21 35 21 35 18.87670898 33.25585938 C18.42110596 32.45986328 17.96550293 31.66386719 17.49609375 30.84375 C16.98369141 29.98652344 16.47128906 29.12929688 15.94335938 28.24609375 C15.44642578 27.33988281 14.94949219 26.43367188 14.4375 25.5 C13.90576172 24.59378906 13.37402344 23.68757813 12.82617188 22.75390625 C11.52096059 20.51976081 10.25640426 18.26195284 9 16 C8.67 22.27 8.34 28.54 8 35 C5.36 35 2.72 35 0 35 C0 23.45 0 11.9 0 0 Z " fill="#010101" transform="translate(131,28)"/>
<path d="M0 0 C3.33333333 0 6.66666667 0 10 0 C10.72832031 -0.05800781 11.45664062 -0.11601563 12.20703125 -0.17578125 C19.27597181 -0.54671516 19.27597181 -0.54671516 23.0625 2.3125 C26.93865556 7.68910287 26.61730925 13.59858769 26 20 C24.79997666 23.26431218 22.97169204 25.26285431 20.1875 27.375 C16.45202434 28.44227876 12.52479098 28.76239549 9 27 C8.67 30.63 8.34 34.26 8 38 C5.36 38 2.72 38 0 38 C0 25.46 0 12.92 0 0 Z M9.26953125 7.18359375 C7.59009996 9.58647236 7.63179919 11.15320403 7.6875 14.0625 C7.69136719 14.94035156 7.69523437 15.81820312 7.69921875 16.72265625 C7.79100666 19.19662769 7.79100666 19.19662769 10 21 C13 21.41666667 13 21.41666667 16 21 C18.06520632 17.90219052 18.29477024 17.0459519 18.3125 13.5 C18.32925781 12.7265625 18.34601563 11.953125 18.36328125 11.15625 C18.15095138 8.93728226 18.15095138 8.93728226 16.73046875 7.21875 C14.11214363 5.37469258 11.91249925 5.37587523 9.26953125 7.18359375 Z " fill="#4C44DA" transform="translate(334,36)"/>
<path d="M0 0 C7.92 0 15.84 0 24 0 C24 1.98 24 3.96 24 6 C19.05 6.33 14.1 6.66 9 7 C9 8.98 9 10.96 9 13 C15.93 13.495 15.93 13.495 23 14 C22.67 15.98 22.34 17.96 22 20 C15.565 20.495 15.565 20.495 9 21 C9 23.31 9 25.62 9 28 C14.28 28.33 19.56 28.66 25 29 C25 30.98 25 32.96 25 35 C16.75 35 8.5 35 0 35 C0 23.45 0 11.9 0 0 Z " fill="#4E44E4" transform="translate(210,28)"/>
<path d="M0 0 C2.64 0 5.28 0 8 0 C8.33 3.96 8.66 7.92 9 12 C9.66 11.34 10.32 10.68 11 10 C13.27734375 9.69921875 13.27734375 9.69921875 15.9375 9.6875 C17.25041016 9.66236328 17.25041016 9.66236328 18.58984375 9.63671875 C21.45674145 10.06884433 22.28526836 10.70473225 24 13 C24.98043964 15.94131891 25.11621202 17.82501665 25.09765625 20.88671875 C25.09443359 21.82451172 25.09121094 22.76230469 25.08789062 23.72851562 C25.07951172 24.70498047 25.07113281 25.68144531 25.0625 26.6875 C25.05798828 27.67556641 25.05347656 28.66363281 25.04882812 29.68164062 C25.03704303 32.12115474 25.02059011 34.56054689 25 37 C22.36 37 19.72 37 17 37 C16.505 27.595 16.505 27.595 16 18 C14.35 17.67 12.7 17.34 11 17 C8.52954197 20.81615468 8.56168088 24.84744248 8.375 29.25 C8.31699219 30.36761719 8.31699219 30.36761719 8.2578125 31.5078125 C8.16394892 33.3381524 8.08090282 35.16904143 8 37 C5.36 37 2.72 37 0 37 C0 24.79 0 12.58 0 0 Z " fill="#4E46CB" transform="translate(259,26)"/>
<path d="M0 0 C3.8396215 3.59964516 5.17461989 7.19996597 5.375 12.375 C5.20732392 16.53196951 4.42208099 19.40335058 2 22.875 C-1.91620687 26.33583398 -4.94062625 27.48214023 -10.04296875 27.19921875 C-14.138381 26.52073728 -17.04506994 24.92871593 -19.8125 21.875 C-22.27412372 17.72910741 -22.60982392 13.57816254 -22 8.875 C-20.75823811 5.20118632 -19.49539588 1.87733694 -16.19921875 -0.33203125 C-11.06598854 -2.18291177 -5.05725325 -1.89646997 0 0 Z M-13 6.875 C-14.21095909 10.84510637 -14.55168415 14.6183861 -12.875 18.4375 C-11.0489074 20.05630864 -11.0489074 20.05630864 -8.5 20.375 C-5.93074521 20.07422756 -5.93074521 20.07422756 -4.1875 18.3125 C-2.55510425 14.96179294 -2.60530765 12.55879526 -3 8.875 C-4.08786184 6.39364773 -4.08786184 6.39364773 -6 4.875 C-10.04622502 4.50519987 -10.04622502 4.50519987 -13 6.875 Z " fill="#4C44D0" transform="translate(324,37.125)"/>
<path d="M0 0 C3.09247271 1.82253976 3.84332828 2.52998485 5 6 C5.07029121 8.57265818 5.09370832 11.11641431 5.0625 13.6875 C5.05798828 14.38939453 5.05347656 15.09128906 5.04882812 15.81445312 C5.03706927 17.54300538 5.01913454 19.27151365 5 21 C5.99 21 6.98 21 8 21 C8 22.98 8 24.96 8 27 C4 27 0 27 -4 27 C-4.66 27.33 -5.32 27.66 -6 28 C-9.09679518 28.0822678 -12.00265395 27.78906368 -15 27 C-17.125 24.875 -17.125 24.875 -18 22 C-17.9375 18.375 -17.9375 18.375 -17 15 C-14.12708742 12.28273054 -11.60316825 11.47159457 -7.75 10.8125 C-6.85796875 10.65394531 -5.9659375 10.49539062 -5.046875 10.33203125 C-4.37140625 10.22246094 -3.6959375 10.11289062 -3 10 C-3.33 9.01 -3.66 8.02 -4 7 C-7.68266103 7.59950296 -11.34543185 8.24758891 -15 9 C-15.66 7.35 -16.32 5.7 -17 4 C-11.82567966 -0.47508786 -6.73637677 -1.12951332 0 0 Z M-10 17 C-9.67 18.65 -9.34 20.3 -9 22 C-5.70924004 21.62095792 -5.70924004 21.62095792 -3 20 C-2.95936168 18.33382885 -2.957279 16.66611905 -3 15 C-5.6465335 15 -7.5808163 15.98139634 -10 17 Z " fill="#4B43CC" transform="translate(395,36)"/>
<path d="M0 0 C9.24 0 18.48 0 28 0 C28 1.98 28 3.96 28 6 C24.7 6 21.4 6 18 6 C18 15.57 18 25.14 18 35 C15.36 35 12.72 35 10 35 C10 25.43 10 15.86 10 6 C6.7 6 3.4 6 0 6 C0 4.02 0 2.04 0 0 Z " fill="#010101" transform="translate(165,28)"/>
<path d="M0 0 C9.24 0 18.48 0 28 0 C28 1.98 28 3.96 28 6 C24.7 6 21.4 6 18 6 C18 15.57 18 25.14 18 35 C15.36 35 12.72 35 10 35 C10 25.43 10 15.86 10 6 C6.7 6 3.4 6 0 6 C0 4.02 0 2.04 0 0 Z " fill="#020202" transform="translate(99,28)"/>
<path d="M0 0 C0 2.31 0 4.62 0 7 C2.64 7 5.28 7 8 7 C8 8.98 8 10.96 8 13 C5.36 13 2.72 13 0 13 C0.33 17.62 0.66 22.24 1 27 C2.65 27 4.3 27 6 27 C8 30 8 30 8 34 C4.39427296 35.20190901 1.7897565 35.32670315 -2 35 C-6.53892216 32.23717782 -6.53892216 32.23717782 -7.62890625 29.3125 C-8.14322848 26.10746042 -8.09253513 22.99379362 -8.0625 19.75 C-8.05347656 18.48671875 -8.04445312 17.2234375 -8.03515625 15.921875 C-8.02355469 14.95765625 -8.01195312 13.9934375 -8 13 C-8.99 13 -9.98 13 -11 13 C-11.33 11.02 -11.66 9.04 -12 7 C-10.68 7 -9.36 7 -8 7 C-8 5.35 -8 3.7 -8 2 C-2.25 0 -2.25 0 0 0 Z " fill="#4C43D9" transform="translate(248,29)"/>
<path d="M0 0 C2.64 0 5.28 0 8 0 C8 8.91 8 17.82 8 27 C5.36 27 2.72 27 0 27 C0 18.09 0 9.18 0 0 Z " fill="#4C44CC" transform="translate(365,36)"/>
<path d="M0 0 C2.64 0 5.28 0 8 0 C8 8.91 8 17.82 8 27 C5.36 27 2.72 27 0 27 C0 18.09 0 9.18 0 0 Z " fill="#4B45D6" transform="translate(290,36)"/>
<path d="M0 0 C7.92 0 15.84 0 24 0 C24 1.98 24 3.96 24 6 C19.05 6.33 14.1 6.66 9 7 C9 8.98 9 10.96 9 13 C15.93 13.495 15.93 13.495 23 14 C23 14.66 23 15.32 23 16 C20.52039864 15.85975781 18.04147598 15.7130815 15.5625 15.5625 C14.85544922 15.52318359 14.14839844 15.48386719 13.41992188 15.44335938 C8.11328125 15.11328125 8.11328125 15.11328125 7 14 C6.90176004 12.52351124 6.87026481 11.04224583 6.875 9.5625 C6.87242187 8.75941406 6.86984375 7.95632812 6.8671875 7.12890625 C7 5 7 5 8 3 C6.35 2.67 4.7 2.34 3 2 C2.01 16.85 2.01 16.85 1 32 C2.32 32.33 3.64 32.66 5 33 C5 33.66 5 34.32 5 35 C3.35 35 1.7 35 0 35 C0 23.45 0 11.9 0 0 Z " fill="#4C45D2" transform="translate(210,28)"/>
<path d="M0 0 C1.50961826 0.05021801 3.01939698 0.09583551 4.52929688 0.13671875 C8.21039133 0.24636036 11.88541744 0.41854723 15.5625 0.625 C14.12402363 4.34145191 12.48547228 7.52744812 10.3125 10.875 C9.69761719 11.82503906 9.08273438 12.77507813 8.44921875 13.75390625 C5.84007342 17.7243448 3.21805925 21.68543409 0.5625 25.625 C-0.20703125 23.9921875 -0.20703125 23.9921875 -0.4375 21.625 C1.36328125 18.8203125 1.36328125 18.8203125 3.875 15.75 C7.10915247 11.77965898 9.22086506 8.59127297 10.5625 3.625 C7.12515937 3.53796177 3.68810163 3.48459728 0.25 3.4375 C-0.72646484 3.41236328 -1.70292969 3.38722656 -2.70898438 3.36132812 C-3.64677734 3.35166016 -4.58457031 3.34199219 -5.55078125 3.33203125 C-6.41485596 3.3163208 -7.27893066 3.30061035 -8.16918945 3.28442383 C-10.88768536 3.69259322 -11.74113829 4.52092904 -13.4375 6.625 C-12.7775 6.955 -12.1175 7.285 -11.4375 7.625 C-15.98934719 11.0621091 -20.12227584 13.56399471 -25.4375 15.625 C-19.98638392 1.50071496 -14.43996119 -0.83504413 0 0 Z " fill="#5A55CC" transform="translate(74.4375,22.375)"/>
<path d="M0 0 C3.3 0 6.6 0 10 0 C13.0097598 5.8220288 13.38006704 10.44453452 13.1875 16.9375 C13.17396484 17.81212891 13.16042969 18.68675781 13.14648438 19.58789062 C13.11144109 21.72553086 13.05764541 23.86284984 13 26 C11.02 26 9.04 26 7 26 C6.97296438 23.41659616 6.95314389 20.83347692 6.9375 18.25 C6.92493164 17.15558594 6.92493164 17.15558594 6.91210938 16.0390625 C6.89608316 12.51329442 7.04707287 9.38965084 8 6 C8.66 6 9.32 6 10 6 C10 5.34 10 4.68 10 4 C8.3603125 4.309375 8.3603125 4.309375 6.6875 4.625 C3 5 3 5 0 3 C0 2.01 0 1.02 0 0 Z " fill="#4D44DF" transform="translate(270,36)"/>
<path d="M0 0 C0.33 0.66 0.66 1.32 1 2 C-5.435 2.495 -5.435 2.495 -12 3 C-12 5.31 -12 7.62 -12 10 C-6.72 10.33 -1.44 10.66 4 11 C4 12.98 4 14.96 4 17 C-2.27 17 -8.54 17 -15 17 C-14.67 11.72 -14.34 6.44 -14 1 C-9.38 0.67 -4.76 0.34 0 0 Z " fill="#4F48CC" transform="translate(231,46)"/>
<path d="M0 0 C2.64 0 5.28 0 8 0 C8 0.66 8 1.32 8 2 C8.99 2.33 9.98 2.66 11 3 C13.81455436 7.59216764 13.18140244 12.80987459 13 18 C12.34 18 11.68 18 11 18 C10.67 19.65 10.34 21.3 10 23 C8.68 23 7.36 23 6 23 C6.495 14.09 6.495 14.09 7 5 C4.03 4.67 1.06 4.34 -2 4 C-1.34 2.68 -0.68 1.36 0 0 Z " fill="#4E43E4" transform="translate(346,37)"/>
<path d="M0 0 C0.99 0 1.98 0 3 0 C3.06058594 0.58007812 3.12117188 1.16015625 3.18359375 1.7578125 C3.56659654 5.32857699 3.97063305 8.84141846 4.625 12.375 C5 15 5 15 4 18 C3.77439324 20.39254576 3.59151405 22.78928123 3.4375 25.1875 C3.35371094 26.45980469 3.26992188 27.73210938 3.18359375 29.04296875 C3.12300781 30.01878906 3.06242187 30.99460937 3 32 C1.68 31.34 0.36 30.68 -1 30 C-1.0246985 26.04900072 -1.04285923 22.09803126 -1.05493164 18.14697266 C-1.06244036 16.14093449 -1.0751447 14.13491798 -1.08789062 12.12890625 C-1.09111328 10.87207031 -1.09433594 9.61523438 -1.09765625 8.3203125 C-1.10289307 7.15773926 -1.10812988 5.99516602 -1.11352539 4.79736328 C-1 2 -1 2 0 0 Z " fill="#4F44E3" transform="translate(262,29)"/>
<path d="M0 0 C4.32483175 0.48053686 6.23076498 1.65781981 9 5 C11.51106831 9.27778424 11.57850649 13.145576 11 18 C9.5 21.5625 9.5 21.5625 8 24 C7.67 23.01 7.34 22.02 7 21 C7.33 20.67 7.66 20.34 8 20 C8.07226502 18.14712498 8.0838122 16.29166122 8.0625 14.4375 C8.05347656 13.42558594 8.04445313 12.41367187 8.03515625 11.37109375 C8.02355469 10.58863281 8.01195312 9.80617188 8 9 C7.01 9 6.02 9 5 9 C5.66 10.32 6.32 11.64 7 13 C6.01 14.485 6.01 14.485 5 16 C5 16.99 5 17.98 5 19 C4.01 19 3.02 19 2 19 C2.02320313 18.38511719 2.04640625 17.77023438 2.0703125 17.13671875 C2.08835937 16.32847656 2.10640625 15.52023438 2.125 14.6875 C2.14820313 13.88699219 2.17140625 13.08648437 2.1953125 12.26171875 C2.15817322 9.71611424 2.15817322 9.71611424 0 7 C-3.08365871 6.7497843 -3.08365871 6.7497843 -6 7 C-6 6.34 -6 5.68 -6 5 C-1.545 4.505 -1.545 4.505 3 4 C3 4.66 3 5.32 3 6 C3.66 6 4.32 6 5 6 C3.86695008 2.60085025 2.87481525 1.94745549 0 0 Z " fill="#4E48C8" transform="translate(318,36)"/>
<path d="M0 0 C0.33 0 0.66 0 1 0 C1.12117187 1.14339844 1.24234375 2.28679688 1.3671875 3.46484375 C1.53597321 4.95578417 1.70527047 6.44666673 1.875 7.9375 C1.95363281 8.69224609 2.03226563 9.44699219 2.11328125 10.22460938 C2.33883808 12.15919299 2.66258974 14.08176019 3 16 C3.66 16.33 4.32 16.66 5 17 C4.67 17.66 4.34 18.32 4 19 C4.99 18.34 5.98 17.68 7 17 C7 16.01 7 15.02 7 14 C10.375 13.8125 10.375 13.8125 14 14 C16 17 16 17 16 21 C12.39427296 22.20190901 9.7897565 22.32670315 6 22 C1.46107784 19.23717782 1.46107784 19.23717782 0.37109375 16.3125 C-0.14322848 13.10746042 -0.09253513 9.99379362 -0.0625 6.75 C-0.05347656 5.48671875 -0.04445312 4.2234375 -0.03515625 2.921875 C-0.02355469 1.95765625 -0.01195312 0.9934375 0 0 Z " fill="#4A46C6" transform="translate(240,42)"/>
<path d="M0 0 C1.32539543 0.00848969 1.32539543 0.00848969 2.67756653 0.01715088 C5.50043868 0.03954633 8.32204263 0.08974773 11.14453125 0.140625 C13.05792438 0.16068594 14.9713374 0.17893742 16.88476562 0.1953125 C21.57600967 0.23942143 26.26630543 0.30847015 30.95703125 0.390625 C30.58203125 2.828125 30.58203125 2.828125 29.95703125 5.390625 C29.29703125 5.720625 28.63703125 6.050625 27.95703125 6.390625 C27.95703125 5.070625 27.95703125 3.750625 27.95703125 2.390625 C15.74703125 2.720625 3.53703125 3.050625 -9.04296875 3.390625 C-10.03296875 5.370625 -11.02296875 7.350625 -12.04296875 9.390625 C-12.70296875 9.390625 -13.36296875 9.390625 -14.04296875 9.390625 C-11.00025581 0.96465071 -8.68457754 -0.208611 0 0 Z " fill="#3681E5" transform="translate(37.04296875,1.609375)"/>
<path d="M0 0 C2.47923801 -0.02685095 4.9581884 -0.04676547 7.4375 -0.0625 C8.14455078 -0.07087891 8.85160156 -0.07925781 9.58007812 -0.08789062 C11.38693559 -0.09653588 13.19387603 -0.05220011 15 0 C16 1 16 1 16 6 C10.72 6 5.44 6 0 6 C0 4.02 0 2.04 0 0 Z " fill="#040406" transform="translate(191,43)"/>
<path d="M0 0 C2.71283336 0.99470557 3.79164693 1.58476113 5.109375 4.2109375 C6.79333401 9.48438807 7.16120072 15.81567637 5.2421875 21.078125 C3.74504362 23.50656311 2.41498105 24.83861848 -0.25 25.875 C-0.8275 25.91625 -1.405 25.9575 -2 26 C-2.66 25.01 -3.32 24.02 -4 23 C-7.05429073 21.78715124 -7.05429073 21.78715124 -10 21 C-10 20.67 -10 20.34 -10 20 C-9.030625 19.87625 -8.06125 19.7525 -7.0625 19.625 C-6.051875 19.41875 -5.04125 19.2125 -4 19 C-2.83016655 16.6603331 -2.8338759 15.16608473 -2.8125 12.5625 C-2.79832031 11.78003906 -2.78414063 10.99757813 -2.76953125 10.19140625 C-2.85913936 7.70794013 -2.85913936 7.70794013 -5 5 C-3.68 5 -2.36 5 -1 5 C-0.97301578 7.43757413 -0.95316901 9.87484915 -0.9375 12.3125 C-0.92912109 13.00279297 -0.92074219 13.69308594 -0.91210938 14.40429688 C-0.89692094 17.5483025 -0.99806673 19.99420019 -2 23 C-0.68 23 0.64 23 2 23 C2.33 21.35 2.66 19.7 3 18 C3.66 18 4.32 18 5 18 C4.58348697 10.23253086 4.58348697 10.23253086 2 3 C1.34 2.67 0.68 2.34 0 2 C0 1.34 0 0.68 0 0 Z " fill="#4E46C0" transform="translate(354,37)"/>
<path d="M0 0 C0.33 1.32 0.66 2.64 1 4 C19.315 4.495 19.315 4.495 38 5 C38 5.66 38 6.32 38 7 C24.8 7 11.6 7 -2 7 C-1 1 -1 1 0 0 Z " fill="#3A7EDB" transform="translate(2,40)"/>
<path d="M0 0 C0.06058594 0.74765625 0.12117188 1.4953125 0.18359375 2.265625 C0.26738281 3.25046875 0.35117187 4.2353125 0.4375 5.25 C0.51871094 6.22453125 0.59992188 7.1990625 0.68359375 8.203125 C0.95074584 10.56461753 1.35371968 12.71901065 2 15 C0.02 15 -1.96 15 -4 15 C-4 13.02 -4 11.04 -4 9 C-4.66 9 -5.32 9 -6 9 C-7.125 3.25 -7.125 3.25 -6 1 C-2 0 -2 0 0 0 Z " fill="#4D42E3" transform="translate(399,46)"/>
<path d="M0 0 C0 3.4480926 -0.63556403 4.32305774 -2.51953125 7.125 C-3.04740234 7.91390625 -3.57527344 8.7028125 -4.11914062 9.515625 C-4.67794922 10.33546875 -5.23675781 11.1553125 -5.8125 12 C-6.63331055 13.22976562 -6.63331055 13.22976562 -7.47070312 14.484375 C-9.79149058 17.92757966 -11.96750406 21.14112667 -15 24 C-14.67 21.36 -14.34 18.72 -14 16 C-13.01 16 -12.02 16 -11 16 C-11 15.34 -11 14.68 -11 14 C-11.66 14 -12.32 14 -13 14 C-12.8125 11.625 -12.8125 11.625 -12 9 C-9.54236535 7.67665827 -7.79402354 7 -5 7 C-3.61876037 5.03277992 -2.28511874 3.03131672 -1 1 C-0.67 0.67 -0.34 0.34 0 0 Z " fill="#2B79E2" transform="translate(64,8)"/>
<path d="M0 0 C3.63 0 7.26 0 11 0 C11.66 1.65 12.32 3.3 13 5 C12.34 5 11.68 5 11 5 C11 5.66 11 6.32 11 7 C10.34 7 9.68 7 9 7 C9 6.34 9 5.68 9 5 C6.03 5 3.06 5 0 5 C0 5.66 0 6.32 0 7 C-0.99 7 -1.98 7 -3 7 C-3 5.68 -3 4.36 -3 3 C-2.01 3 -1.02 3 0 3 C0 2.01 0 1.02 0 0 Z " fill="#4B40DD" transform="translate(384,36)"/>
<path d="M0 0 C1.69181389 0.14345125 3.38254105 0.31643006 5.0625 0.5625 C5.3925 1.8825 5.7225 3.2025 6.0625 4.5625 C4.0825 4.8925 2.1025 5.2225 0.0625 5.5625 C-0.2675 4.9025 -0.5975 4.2425 -0.9375 3.5625 C-2.5875 3.5625 -4.2375 3.5625 -5.9375 3.5625 C-5.9375 4.2225 -5.9375 4.8825 -5.9375 5.5625 C-5.2775 5.5625 -4.6175 5.5625 -3.9375 5.5625 C-4.2675 6.8825 -4.5975 8.2025 -4.9375 9.5625 C-5.9275 9.5625 -6.9175 9.5625 -7.9375 9.5625 C-9.62548827 11.00000191 -9.62548827 11.00000191 -10.9375 12.5625 C-11.5975 11.5725 -12.2575 10.5825 -12.9375 9.5625 C-9.54286025 3.7232562 -7.16613251 -0.08332712 0 0 Z " fill="#4843DC" transform="translate(35.9375,48.4375)"/>
<path d="M0 0 C1.65 0.33 3.3 0.66 5 1 C5.05429959 2.74965358 5.09292823 4.49979787 5.125 6.25 C5.14820313 7.22453125 5.17140625 8.1990625 5.1953125 9.203125 C4.99609096 12.05597744 4.60856195 13.65236904 3 16 C0.375 16.75 0.375 16.75 -2 17 C-2.33 15.02 -2.66 13.04 -3 11 C-1.68 10.67 -0.36 10.34 1 10 C0.67 9.01 0.34 8.02 0 7 C0.66 6.01 1.32 5.02 2 4 C1.34 2.68 0.68 1.36 0 0 Z " fill="#4E43E4" transform="translate(322,44)"/>
<path d="M0 0 C0.33 0 0.66 0 1 0 C1.33 11.55 1.66 23.1 2 35 C3.65 35.33 5.3 35.66 7 36 C6.67 30.39 6.34 24.78 6 19 C6.99 18.67 7.98 18.34 9 18 C8.67 24.27 8.34 30.54 8 37 C5.36 37 2.72 37 0 37 C0 24.79 0 12.58 0 0 Z " fill="#524BAD" transform="translate(259,26)"/>
<path d="M0 0 C1.4540625 0.0309375 1.4540625 0.0309375 2.9375 0.0625 C4.0625 2.375 4.0625 2.375 4.9375 5.0625 C3.9475 6.5475 3.9475 6.5475 2.9375 8.0625 C-0.0625 8.375 -0.0625 8.375 -3.0625 8.0625 C-3.7225 7.4025 -4.3825 6.7425 -5.0625 6.0625 C-4.33395709 0.0884481 -4.33395709 0.0884481 0 0 Z " fill="#4540CD" transform="translate(294.0625,25.9375)"/>
<path d="M0 0 C0.33 0.66 0.66 1.32 1 2 C0.01 3.98 -0.98 5.96 -2 8 C10.21 8 22.42 8 35 8 C35.33 7.34 35.66 6.68 36 6 C36.66 6.33 37.32 6.66 38 7 C38 6.34 38 5.68 38 5 C38.66 5.33 39.32 5.66 40 6 C39.34 6.99 38.68 7.98 38 9 C36.16500854 9.36076355 36.16500854 9.36076355 33.91748047 9.34057617 C33.07675995 9.34034958 32.23603943 9.34012299 31.36984253 9.33988953 C30.46146637 9.32440567 29.55309021 9.30892181 28.6171875 9.29296875 C27.68778351 9.28872391 26.75837952 9.28447906 25.80081177 9.28010559 C22.82524944 9.26328012 19.85035844 9.22562103 16.875 9.1875 C14.86068685 9.17245816 12.84636311 9.15876888 10.83203125 9.14648438 C5.88776121 9.11336394 0.94399451 9.06155529 -4 9 C-4 5.00095031 -2.27413033 3.19799578 0 0 Z " fill="#5E57C4" transform="translate(23,59)"/>
<path d="M0 0 C3 0.125 3 0.125 4 1.125 C4.125 4.125 4.125 4.125 4 7.125 C3 8.125 3 8.125 0.0625 8.3125 C-3 8.125 -3 8.125 -5 6.125 C-4.27477017 0.17811542 -4.27477017 0.17811542 0 0 Z " fill="#4843BE" transform="translate(369,25.875)"/>
<path d="M0 0 C1.32 0.66 2.64 1.32 4 2 C2.63425709 4.69030764 1.24086044 6.95866823 -1 9 C-4.08355042 9.61361622 -6.89810712 9.42575 -10 9 C-9.34 8.67 -8.68 8.34 -8 8 C-8 7.01 -8 6.02 -8 5 C-3.545 4.01 -3.545 4.01 1 3 C0.67 2.01 0.34 1.02 0 0 Z " fill="#1778F6" transform="translate(42,36)"/>
<path d="M0 0 C0.99 0.66 1.98 1.32 3 2 C3.29296875 4.3828125 3.29296875 4.3828125 3.1875 7.125 C3.16042969 8.03507812 3.13335937 8.94515625 3.10546875 9.8828125 C3.07066406 10.58148438 3.03585937 11.28015625 3 12 C1.35 12.33 -0.3 12.66 -2 13 C-2.33 11.68 -2.66 10.36 -3 9 C-2.34 9 -1.68 9 -1 9 C-0.67 6.03 -0.34 3.06 0 0 Z " fill="#4D42E3" transform="translate(306,38)"/>
<path d="M0 0 C0.33 0 0.66 0 1 0 C1 10.56 1 21.12 1 32 C2.32 32.33 3.64 32.66 5 33 C5 33.66 5 34.32 5 35 C3.35 35 1.7 35 0 35 C0 23.45 0 11.9 0 0 Z " fill="#4646B3" transform="translate(210,28)"/>
<path d="M0 0 C0.33 3.63 0.66 7.26 1 11 C-0.32 11.33 -1.64 11.66 -3 12 C-4.28317892 8.15046324 -4.06643637 5.05261865 -4 1 C-1 0 -1 0 0 0 Z " fill="#4E43E5" transform="translate(247,49)"/>
<path d="M0 0 C0 0.66 0 1.32 0 2 C-0.99 2 -1.98 2 -3 2 C-3 3.32 -3 4.64 -3 6 C-2.01 6 -1.02 6 0 6 C0 5.34 0 4.68 0 4 C2.97 4 5.94 4 9 4 C9 5.65 9 7.3 9 9 C8.34 8.01 7.68 7.02 7 6 C3.31733897 6.59950296 -0.34543185 7.24758891 -4 8 C-4.66 6.35 -5.32 4.7 -6 3 C-2.25 0 -2.25 0 0 0 Z " fill="#4C45BA" transform="translate(384,37)"/>
<path d="M0 0 C1.258125 -0.04125 2.51625 -0.0825 3.8125 -0.125 C4.52019531 -0.14820313 5.22789062 -0.17140625 5.95703125 -0.1953125 C8 0 8 0 11 2 C11 2.99 11 3.98 11 5 C10.01 4.67 9.02 4.34 8 4 C6.43881572 3.93259135 4.8749748 3.91485544 3.3125 3.9375 C2.50425781 3.94652344 1.69601562 3.95554688 0.86328125 3.96484375 C0.24839844 3.97644531 -0.36648438 3.98804688 -1 4 C-0.67 2.68 -0.34 1.36 0 0 Z " fill="#4D43E4" transform="translate(312,37)"/>
<path d="M0 0 C0.33 0.66 0.66 1.32 1 2 C-1.20193222 7.87181925 -4.1577356 13.41657942 -7 19 C-7.99 18.67 -8.98 18.34 -10 18 C-8.66392467 15.22269525 -7.17801789 12.64603364 -5.5 10.0625 C-3.63454325 7.1216623 -2.1940329 4.28359046 -1 1 C-0.67 0.67 -0.34 0.34 0 0 Z " fill="#1C78F2" transform="translate(22,11)"/>
<path d="M0 0 C0.99 1.485 0.99 1.485 2 3 C4.58380177 3.25030977 4.58380177 3.25030977 7 3 C7.66 4.32 8.32 5.64 9 7 C8.01 6.67 7.02 6.34 6 6 C6 7.65 6 9.3 6 11 C5.34 10.34 4.68 9.68 4 9 C3.67 9 3.34 9 3 9 C2.01 9 1.02 9 0 9 C0 6.03 0 3.06 0 0 Z " fill="#483FE2" transform="translate(335,37)"/>
<path d="M0 0 C0.99 0.33 1.98 0.66 3 1 C-0.5999838 7.59997031 -4.78971917 13.7765509 -9 20 C-9.7734375 18.375 -9.7734375 18.375 -10 16 C-8.61418054 13.8298657 -7.25870276 11.96433308 -5.625 10 C-1.79872886 5.51217567 -1.79872886 5.51217567 0 0 Z " fill="#5D58BF" transform="translate(84,28)"/>
<path d="M0 0 C9.57 0 19.14 0 29 0 C28.67 1.65 28.34 3.3 28 5 C27.34 4.01 26.68 3.02 26 2 C23.28995497 1.489395 23.28995497 1.489395 20.1171875 1.48828125 C18.95058594 1.45283203 17.78398438 1.41738281 16.58203125 1.38085938 C14.74705078 1.34702148 14.74705078 1.34702148 12.875 1.3125 C11.64394531 1.27833984 10.41289063 1.24417969 9.14453125 1.20898438 C6.0964449 1.12628436 3.04865429 1.05720573 0 1 C0 0.67 0 0.34 0 0 Z " fill="#5F58D7" transform="translate(59,24)"/>
<path d="M0 0 C5.28 0 10.56 0 16 0 C15.67 1.65 15.34 3.3 15 5 C14.01 5.495 14.01 5.495 13 6 C13 4.68 13 3.36 13 2 C11.783125 2.020625 10.56625 2.04125 9.3125 2.0625 C6.08022678 2.06824116 3.15065259 1.78766315 0 1 C0 0.67 0 0.34 0 0 Z " fill="#3779D7" transform="translate(52,2)"/>
<path d="M0 0 C0.99 0 1.98 0 3 0 C3 1.98 3 3.96 3 6 C1.741875 6.04125 0.48375 6.0825 -0.8125 6.125 C-1.52019531 6.14820313 -2.22789062 6.17140625 -2.95703125 6.1953125 C-5 6 -5 6 -8 4 C-8 3.34 -8 2.68 -8 2 C-7.01 1.67 -6.02 1.34 -5 1 C-5 1.99 -5 2.98 -5 4 C-3.02 4 -1.04 4 1 4 C0.67 2.68 0.34 1.36 0 0 Z " fill="#5049BF" transform="translate(400,57)"/>
<path d="M0 0 C1.65 0.33 3.3 0.66 5 1 C4.67 2.32 4.34 3.64 4 5 C3.01 5 2.02 5 1 5 C-0.68798827 6.43750191 -0.68798827 6.43750191 -2 8 C-2.66 7.01 -3.32 6.02 -4 5 C-2.68 3.35 -1.36 1.7 0 0 Z " fill="#4F47D6" transform="translate(27,53)"/>
<path d="M0 0 C1.8871875 0.061875 1.8871875 0.061875 3.8125 0.125 C3.8125 0.455 3.8125 0.785 3.8125 1.125 C1.8325 1.125 -0.1475 1.125 -2.1875 1.125 C-2.1875 3.435 -2.1875 5.745 -2.1875 8.125 C-3.1775 8.455 -4.1675 8.785 -5.1875 9.125 C-5.8475 6.815 -6.5075 4.505 -7.1875 2.125 C-4.09861478 0.06574319 -3.47814073 -0.1140374 0 0 Z " fill="#4E43D2" transform="translate(314.1875,35.875)"/>
<path d="M0 0 C5.94 1.485 5.94 1.485 12 3 C12 3.33 12 3.66 12 4 C5.25 4.125 5.25 4.125 3 3 C2.67 6.63 2.34 10.26 2 14 C1.67 14 1.34 14 1 14 C0.67 9.38 0.34 4.76 0 0 Z " fill="#4C48C0" transform="translate(340,60)"/>
<path d="M0 0 C1.65 0.33 3.3 0.66 5 1 C5 2.65 5 4.3 5 6 C3.02 6 1.04 6 -1 6 C-1 3 -1 3 0 0 Z " fill="#403AD5" transform="translate(367,28)"/>
<path d="M0 0 C2.31 0 4.62 0 7 0 C7 0.66 7 1.32 7 2 C5.02 2.33 3.04 2.66 1 3 C0.67 4.32 0.34 5.64 0 7 C-0.99 6.34 -1.98 5.68 -3 5 C-2.67 4.01 -2.34 3.02 -2 2 C-1.34 2 -0.68 2 0 2 C0 1.34 0 0.68 0 0 Z " fill="#483DE0" transform="translate(382,49)"/>
<path d="M0 0 C0.33 0.66 0.66 1.32 1 2 C0.00664799 3.67063747 -0.99431758 5.33675599 -2 7 C-2.70670728 9.69254991 -2.70670728 9.69254991 -3 12 C-4.32 12 -5.64 12 -7 12 C-5.44298069 7.32894208 -2.91552627 3.91294315 0 0 Z " fill="#5651CC" transform="translate(48,38)"/>
<path d="M0 0 C0 2.31 0 4.62 0 7 C-0.33 7 -0.66 7 -1 7 C-1 5.35 -1 3.7 -1 2 C-1.99 2 -2.98 2 -4 2 C-4 2.66 -4 3.32 -4 4 C-4.66 4 -5.32 4 -6 4 C-6.33 4.99 -6.66 5.98 -7 7 C-7.33 7 -7.66 7 -8 7 C-8 5.35 -8 3.7 -8 2 C-2.25 0 -2.25 0 0 0 Z " fill="#4A46BE" transform="translate(248,29)"/>
<path d="M0 0 C2.31 0.66 4.62 1.32 7 2 C6.01 2.495 6.01 2.495 5 3 C5 3.66 5 4.32 5 5 C3.02 5 1.04 5 -1 5 C-0.67 3.35 -0.34 1.7 0 0 Z " fill="#4139DF" transform="translate(383,58)"/>
<path d="M0 0 C1.32 0.66 2.64 1.32 4 2 C2 4 2 4 -0.6015625 4.1953125 C-1.59929687 4.17210937 -2.59703125 4.14890625 -3.625 4.125 C-5.12933594 4.09792969 -5.12933594 4.09792969 -6.6640625 4.0703125 C-7.43492187 4.04710937 -8.20578125 4.02390625 -9 4 C-5.78360346 2.25434889 -3.67986596 1.795563 0 2 C0 1.34 0 0.68 0 0 Z " fill="#423BE1" transform="translate(229,43)"/>
<path d="M0 0 C2.64 0 5.28 0 8 0 C8 1.65 8 3.3 8 5 C9.65 4.67 11.3 4.34 13 4 C12.01 4.99 11.02 5.98 10 7 C7 6 7 6 5 3 C2.43717258 2.27034634 2.43717258 2.27034634 0 2 C0 1.34 0 0.68 0 0 Z " fill="#4D46BB" transform="translate(312,56)"/>
<path d="M0 0 C-1.31224548 3.93673644 -2.91910327 6.22719294 -6 9 C-5.67 6.36 -5.34 3.72 -5 1 C-2 0 -2 0 0 0 Z " fill="#3477E2" transform="translate(55,23)"/>
<path d="M0 0 C3.44216672 2.6598561 3.99504674 5.90288286 5 10 C3.0625 9.5 3.0625 9.5 1 8 C0.31209578 5.30341548 0.18053536 2.7982981 0 0 Z " fill="#4B48BB" transform="translate(377,53)"/>
<path d="M0 0 C1.32 0.66 2.64 1.32 4 2 C3.19152271 3.16945792 2.37810888 4.33550461 1.5625 5.5 C1.11003906 6.1496875 0.65757813 6.799375 0.19140625 7.46875 C-0.20175781 7.9740625 -0.59492187 8.479375 -1 9 C-1.33 9 -1.66 9 -2 9 C-2 7.02 -2 5.04 -2 3 C-1.01 3 -0.02 3 1 3 C0.67 2.01 0.34 1.02 0 0 Z " fill="#2877DD" transform="translate(42,36)"/>
<path d="M0 0 C0.99 0.66 1.98 1.32 3 2 C3 2.99 3 3.98 3 5 C1.02 5 -0.96 5 -3 5 C-2 2 -2 2 0 0 Z " fill="#473CDF" transform="translate(398,56)"/>
<path d="M0 0 C0 1.65 0 3.3 0 5 C-0.66 5 -1.32 5 -2 5 C-2 4.34 -2 3.68 -2 3 C-2.99 3 -3.98 3 -5 3 C-5.33 3.66 -5.66 4.32 -6 5 C-6 3.68 -6 2.36 -6 1 C-3 0 -3 0 0 0 Z " fill="#463FDF" transform="translate(297,36)"/>
<path d="M0 0 C0.8125 1.6875 0.8125 1.6875 1 4 C-1.4375 6.75 -1.4375 6.75 -4 9 C-4 5.00095031 -2.27413033 3.19799578 0 0 Z " fill="#5955C8" transform="translate(54,29)"/>
<path d="M0 0 C2.475 0.99 2.475 0.99 5 2 C4.67 2.99 4.34 3.98 4 5 C2.35 4.67 0.7 4.34 -1 4 C-0.67 2.68 -0.34 1.36 0 0 Z " fill="#2177EB" transform="translate(52,18)"/>
<path d="M0 0 C1.32 0.33 2.64 0.66 4 1 C2.35 3.64 0.7 6.28 -1 9 C-2.25541557 5.23375329 -1.37061958 3.62811066 0 0 Z " fill="#544EC7" transform="translate(65,55)"/>
<path d="M0 0 C4.28806873 0.47645208 6.26647487 1.65902484 9 5 C9 5.66 9 6.32 9 7 C8.01 7 7.02 7 6 7 C6 5.68 6 4.36 6 3 C4.02 2.34 2.04 1.68 0 1 C0 0.67 0 0.34 0 0 Z " fill="#534ABF" transform="translate(318,36)"/>
<path d="M0 0 C0 1.98 0 3.96 0 6 C-0.37125 5.505 -0.7425 5.01 -1.125 4.5 C-3.74694393 2.40244486 -5.73842472 2.78256165 -9 3 C-9 2.34 -9 1.68 -9 1 C-1.125 0 -1.125 0 0 0 Z " fill="#4E4AC4" transform="translate(321,40)"/>
<path d="M0 0 C1.0625 1.875 1.0625 1.875 2 4 C1.67 4.66 1.34 5.32 1 6 C-0.98 6 -2.96 6 -5 6 C-4.01 5.34 -3.02 4.68 -2 4 C-0.80767387 1.94996045 -0.80767387 1.94996045 0 0 Z " fill="#3E39CF" transform="translate(297,27)"/>
<path d="M0 0 C2.64 0.33 5.28 0.66 8 1 C4.3558226 3.4294516 2.28758728 3.16179575 -2 3 C-1.34 2.01 -0.68 1.02 0 0 Z " fill="#443EDA" transform="translate(247,60)"/>
</svg>
